999
dxfrw 0.6.3
  0
SECTION
  2
HEADER
  9
$ACADVER
  1
AC1021
  9
$DWGCODEPAGE
  3
ANSI_1252
  9
$INSBASE
 10
0
 20
0
 30
0
  9
$EXTMIN
 10
-100
 20
-100
 30
0
  9
$EXTMAX
 10
100
 20
100
 30
0
  9
$LIMMIN
 10
0
 20
0
  9
$LIMMAX
 10
42000
 20
29700
  9
$ORTHOMODE
 70
    0
  9
$REGENMODE
 70
    1
  9
$FILLMODE
 70
    1
  9
$QTEXTMODE
 70
    0
  9
$MIRRTEXT
 70
    0
  9
$LTSCALE
 40
1000
  9
$ATTMODE
 70
    1
  9
$TEXTSIZE
 40
2.5
  9
$TRACEWID
 40
1
  9
$TEXTSTYLE
  7
Standard
  9
$CLAYER
  8
0
  9
$CELTYPE
  6
ByLayer
  9
$CECOLOR
 62
    1
  9
$CELTSCALE
 40
1
  9
$DISPSILH
 70
    0
  9
$DIMSCALE
 40
0.001
  9
$DIMASZ
 40
150
  9
$DIMEXO
 40
0
  9
$DIMDLI
 40
500
  9
$DIMRND
 40
0
  9
$DIMDLE
 40
125
  9
$DIMEXE
 40
125
  9
$DIMTP
 40
0
  9
$DIMTM
 40
0
  9
$DIMTXT
 40
200
  9
$DIMCEN
 40
250
  9
$DIMTSZ
 40
0
  9
$DIMTOL
 70
    0
  9
$DIMLIM
 70
    0
  9
$DIMTIH
 70
    0
  9
$DIMTOH
 70
    0
  9
$DIMSE1
 70
    0
  9
$DIMSE2
 70
    0
  9
$DIMTAD
 70
    1
  9
$DIMZIN
 70
   12
  9
$DIMBLK
  1

  9
$DIMASO
 70
    1
  9
$DIMSHO
 70
    1
  9
$DIMPOST
  1

  9
$DIMAPOST
  1

  9
$DIMALT
 70
    0
  9
$DIMALTD
 70
    2
  9
$DIMALTF
 40
25.4
  9
$DIMLFAC
 40
1
  9
$DIMTOFL
 70
    0
  9
$DIMTVP
 40
0
  9
$DIMTIX
 70
    0
  9
$DIMSOXD
 70
    0
  9
$DIMSAH
 70
    0
  9
$DIMBLK1
  1

  9
$DIMBLK2
  1

  9
$DIMSTYLE
  2
ISO-25
  9
$DIMCLRD
 70
    0
  9
$DIMCLRE
 70
    0
  9
$DIMCLRT
 70
    0
  9
$DIMTFAC
 40
1
  9
$DIMGAP
 40
100
  9
$DIMJUST
 70
    0
  9
$DIMSD1
 70
    0
  9
$DIMSD2
 70
    0
  9
$DIMTOLJ
 70
    1
  9
$DIMTZIN
 70
    0
  9
$DIMALTZ
 70
    0
  9
$DIMALTTZ
 70
    0
  9
$DIMUPT
 70
    0
  9
$DIMDEC
 70
    2
  9
$DIMTDEC
 70
    4
  9
$DIMALTU
 70
    2
  9
$DIMALTTD
 70
    2
  9
$DIMTXSTY
  7
Romans
  9
$DIMAUNIT
 70
    0
  9
$DIMADEC
 70
    0
  9
$DIMALTRND
 40
0
  9
$DIMAZIN
 70
    0
  9
$DIMDSEP
 70
   46
  9
$DIMATFIT
 70
    3
  9
$DIMFRAC
 70
    0
  9
$DIMLDRBLK
  1

  9
$DIMLUNIT
 70
    2
  9
$DIMLWD
 70
   -2
  9
$DIMLWE
 70
   -2
  9
$DIMTMOVE
 70
    2
  9
$DIMFXL
 40
1
  9
$DIMFXLON
 70
    0
  9
$DIMJOGANG
 40
0.7853981633974483
  9
$DIMTFILL
 70
    0
  9
$DIMTFILLCLR
 70
    0
  9
$DIMARCSYM
 70
    0
  9
$DIMLTYPE
  6

  9
$DIMLTEX1
  6

  9
$DIMLTEX2
  6

  9
$LUNITS
 70
    2
  9
$LUPREC
 70
    2
  9
$SKETCHINC
 40
1
  9
$FILLETRAD
 40
0
  9
$AUNITS
 70
    0
  9
$AUPREC
 70
    2
  9
$MENU
  1
.
  9
$ELEVATION
 40
0
  9
$PELEVATION
 40
0
  9
$THICKNESS
 40
0
  9
$LIMCHECK
 70
    0
  9
$CHAMFERA
 40
0
  9
$CHAMFERB
 40
0
  9
$CHAMFERC
 40
0
  9
$CHAMFERD
 40
0
  9
$SKPOLY
 70
    0
  9
$USRTIMER
 70
    1
  9
$ANGBASE
 50
0
  9
$ANGDIR
 70
    0
  9
$PDMODE
 70
    0
  9
$PDSIZE
 40
0
  9
$PLINEWID
 40
0
  9
$SPLFRAME
 70
    0
  9
$SPLINETYPE
 70
    6
  9
$SPLINESEGS
 70
    8
  9
$HANDSEED
  5
20000
  9
$SURFTAB1
 70
    6
  9
$SURFTAB2
 70
    6
  9
$SURFTYPE
 70
    6
  9
$SURFU
 70
    6
  9
$SURFV
 70
    6
  9
$UCSBASE
  2

  9
$UCSNAME
  2

  9
$UCSORG
 10
0
 20
0
 30
0
  9
$UCSXDIR
 10
1
 20
0
 30
0
  9
$UCSYDIR
 10
0
 20
1
 30
0
  9
$UCSORTHOREF
  2

  9
$UCSORTHOVIEW
 70
    0
  9
$UCSORGTOP
 10
0
 20
0
 30
0
  9
$UCSORGBOTTOM
 10
0
 20
0
 30
0
  9
$UCSORGLEFT
 10
0
 20
0
 30
0
  9
$UCSORGRIGHT
 10
0
 20
0
 30
0
  9
$UCSORGFRONT
 10
0
 20
0
 30
0
  9
$UCSORGBACK
 10
0
 20
0
 30
0
  9
$PUCSBASE
  2

  9
$PUCSNAME
  2

  9
$PUCSORG
 10
0
 20
0
 30
0
  9
$PUCSXDIR
 10
1
 20
0
 30
0
  9
$PUCSYDIR
 10
0
 20
1
 30
0
  9
$PUCSORTHOREF
  2

  9
$PUCSORTHOVIEW
 70
    0
  9
$PUCSORGTOP
 10
0
 20
0
 30
0
  9
$PUCSORGBOTTOM
 10
0
 20
0
 30
0
  9
$PUCSORGLEFT
 10
0
 20
0
 30
0
  9
$PUCSORGRIGHT
 10
0
 20
0
 30
0
  9
$PUCSORGFRONT
 10
0
 20
0
 30
0
  9
$PUCSORGBACK
 10
0
 20
0
 30
0
  9
$USERI1
 70
    0
  9
$USERI2
 70
    0
  9
$USERI3
 70
    0
  9
$USERI4
 70
    0
  9
$USERI5
 70
    0
  9
$USERR1
 40
0
  9
$USERR2
 40
0
  9
$USERR3
 40
0
  9
$USERR4
 40
0
  9
$USERR5
 40
0
  9
$WORLDVIEW
 70
    1
  9
$SHADEDGE
 70
    3
  9
$SHADEDIF
 70
   70
  9
$TILEMODE
 70
    1
  9
$MAXACTVP
 70
   64
  9
$PINSBASE
 10
0
 20
0
 30
0
  9
$PLIMCHECK
 70
    0
  9
$PEXTMIN
 10
1e+20
 20
1e+20
 30
1e+20
  9
$PEXTMAX
 10
-1e+20
 20
-1e+20
 30
-1e+20
  9
$GRIDMODE
 70
    0
  9
$SNAPSTYLE
 70
    0
  9
$PLIMMIN
 10
0
 20
0
  9
$PLIMMAX
 10
420
 20
297
  9
$UNITMODE
 70
    0
  9
$VISRETAIN
 70
    1
  9
$PLINEGEN
 70
    0
  9
$PSLTSCALE
 70
    1
  9
$TREEDEPTH
 70
 3020
  9
$CMLSTYLE
  2
Standard
  9
$CMLJUST
 70
    0
  9
$CMLSCALE
 40
20
  9
$PROXYGRAPHICS
 70
    1
  9
$MEASUREMENT
 70
    1
  9
$CELWEIGHT
370
   -1
  9
$ENDCAPS
280
    0
  9
$JOINSTYLE
280
    0
  9
$LWDISPLAY
290
    0
  9
$INSUNITS
 70
    0
  9
$HYPERLINKBASE
  1

  9
$STYLESHEET
  1

  9
$XEDIT
290
    1
  9
$CEPSNTYPE
380
    0
  9
$PSTYLEMODE
290
    1
  9
$EXTNAMES
290
    1
  9
$PSVPSCALE
 40
0
  9
$OLESTARTUP
290
    0
  9
$SORTENTS
280
  127
  9
$INDEXCTL
280
    0
  9
$HIDETEXT
280
    1
  9
$XCLIPFRAME
290
    2
  9
$HALOGAP
280
    0
  9
$OBSCOLOR
 70
  257
  9
$OBSLTYPE
280
    0
  9
$INTERSECTIONDISPLAY
280
    0
  9
$INTERSECTIONCOLOR
 70
  257
  9
$DIMASSOC
280
    2
  9
$PROJECTNAME
  1

  9
$CAMERADISPLAY
290
    0
  9
$LENSLENGTH
 40
50
  9
$CAMERAHEIGHT
 40
0
  9
$STEPSPERSEC
 40
2
  9
$STEPSIZE
 40
6
  9
$3DDWFPREC
 40
2
  9
$PSOLWIDTH
 40
0.25
  9
$PSOLHEIGHT
 40
4
  9
$LOFTANG1
 40
1.570796326794896
  9
$LOFTANG2
 40
1.570796326794896
  9
$LOFTMAG1
 40
0
  9
$LOFTMAG2
 40
0
  9
$LOFTPARAM
 70
    7
  9
$LOFTNORMALS
280
    1
  9
$LATITUDE
 40
37.795
  9
$LONGITUDE
 40
-122.394
  9
$NORTHDIRECTION
 40
0
  9
$TIMEZONE
 70
-8000
  9
$LIGHTGLYPHDISPLAY
280
    1
  9
$TILEMODELIGHTSYNCH
280
    1
  9
$SOLIDHIST
280
    0
  9
$SHOWHIST
280
    1
  9
$DWFFRAME
280
    2
  9
$DGNFRAME
280
    0
  9
$REALWORLDSCALE
290
    1
  9
$INTERFERECOLOR
 62
    1
  9
$CSHADOW
280
    0
  9
$SHADOWPLANELOCATION
 40
0
  0
ENDSEC
  0
SECTION
  2
CLASSES
  0
ENDSEC
  0
SECTION
  2
TABLES
  0
TABLE
  2
VPORT
  5
8
330
0
100
AcDbSymbolTable
 70
    1
  0
VPORT
  5
31
330
2
100
AcDbSymbolTableRecord
100
AcDbViewportTableRecord
  2
*ACTIVE
 70
    0
 10
0
 20
0
 11
1
 21
1
 12
0.7313452398961042
 22
0.1354343036844637
 13
0
 23
0
 14
10
 24
10
 15
10
 25
10
 16
0
 26
0
 36
1
 17
0
 27
0
 37
0
 40
7.909363335172683
 41
1.384417808219178
 42
50
 43
0
 44
0
 50
0
 51
0
 71
    0
 72
  100
 73
    1
 74
    3
 75
    0
 76
    0
 77
    0
 78
    0
281
    0
 65
    1
110
0
120
0
130
0
111
1
121
0
131
0
112
0
122
1
132
0
 79
    0
146
0
348
10020
 60
    7
 61
    5
292
1
282
    1
141
0
142
0
 63
  250
421
3358443
  0
ENDTAB
  0
TABLE
  2
LTYPE
  5
5
330
0
100
AcDbSymbolTable
 70
    4
  0
LTYPE
  5
14
330
5
100
AcDbSymbolTableRecord
100
AcDbLinetypeTableRecord
  2
ByBlock
 70
    0
  3

 72
   65
 73
    0
 40
0
  0
LTYPE
  5
15
330
5
100
AcDbSymbolTableRecord
100
AcDbLinetypeTableRecord
  2
ByLayer
 70
    0
  3

 72
   65
 73
    0
 40
0
  0
LTYPE
  5
16
330
5
100
AcDbSymbolTableRecord
100
AcDbLinetypeTableRecord
  2
Continuous
 70
    0
  3
Solid line
 72
   65
 73
    0
 40
0
  0
LTYPE
  5
32
330
5
100
AcDbSymbolTableRecord
100
AcDbLinetypeTableRecord
  2
DOT
 70
    0
  3
Dot . . . . . . . . . . . . . . . . . . . . . .
 72
   65
 73
    2
 40
6.35
 49
0
 74
    0
 49
-6.35
 74
    0
  0
LTYPE
  5
33
330
5
100
AcDbSymbolTableRecord
100
AcDbLinetypeTableRecord
  2
DOTTINY
 70
    0
  3
Dot (.15x) .....................................
 72
   65
 73
    2
 40
0.9525
 49
0
 74
    0
 49
-0.9525
 74
    0
  0
LTYPE
  5
34
330
5
100
AcDbSymbolTableRecord
100
AcDbLinetypeTableRecord
  2
DOT2
 70
    0
  3
Dot (.5x) .....................................
 72
   65
 73
    2
 40
3.175
 49
0
 74
    0
 49
-3.175
 74
    0
  0
LTYPE
  5
35
330
5
100
AcDbSymbolTableRecord
100
AcDbLinetypeTableRecord
  2
DOTX2
 70
    0
  3
Dot (2x) .  .  .  .  .  .  .  .  .  .  .  .  .
 72
   65
 73
    2
 40
12.7
 49
0
 74
    0
 49
-12.7
 74
    0
  0
LTYPE
  5
36
330
5
100
AcDbSymbolTableRecord
100
AcDbLinetypeTableRecord
  2
DASHED
 70
    0
  3
Dashed _ _ _ _ _ _ _ _ _ _ _ _ _ _ _ _ _
 72
   65
 73
    2
 40
19.05
 49
12.7
 74
    0
 49
-6.35
 74
    0
  0
LTYPE
  5
37
330
5
100
AcDbSymbolTableRecord
100
AcDbLinetypeTableRecord
  2
DASHEDTINY
 70
    0
  3
Dashed (.15x) _ _ _ _ _ _ _ _ _ _ _ _ _ _ _ _ _
 72
   65
 73
    2
 40
2.8575
 49
1.905
 74
    0
 49
-0.9525
 74
    0
  0
LTYPE
  5
38
330
5
100
AcDbSymbolTableRecord
100
AcDbLinetypeTableRecord
  2
DASHED2
 70
    0
  3
Dashed (.5x) _ _ _ _ _ _ _ _ _ _ _ _ _ _ _ _ _
 72
   65
 73
    2
 40
9.524999999999999
 49
6.35
 74
    0
 49
-3.175
 74
    0
  0
LTYPE
  5
39
330
5
100
AcDbSymbolTableRecord
100
AcDbLinetypeTableRecord
  2
DASHEDX2
 70
    0
  3
Dashed (2x) ____  ____  ____  ____  ____  ___
 72
   65
 73
    2
 40
38.09999999999999
 49
25.4
 74
    0
 49
-12.7
 74
    0
  0
LTYPE
  5
3A
330
5
100
AcDbSymbolTableRecord
100
AcDbLinetypeTableRecord
  2
DASHDOT
 70
    0
  3
Dash dot __ . __ . __ . __ . __ . __ . __ . __
 72
   65
 73
    4
 40
25.4
 49
12.7
 74
    0
 49
-6.35
 74
    0
 49
0
 74
    0
 49
-6.35
 74
    0
  0
LTYPE
  5
3B
330
5
100
AcDbSymbolTableRecord
100
AcDbLinetypeTableRecord
  2
DASHDOTTINY
 70
    0
  3
Dash dot (.15x) _._._._._._._._._._._._._._._.
 72
   65
 73
    4
 40
3.81
 49
1.905
 74
    0
 49
-0.9525
 74
    0
 49
0
 74
    0
 49
-0.9525
 74
    0
  0
LTYPE
  5
3C
330
5
100
AcDbSymbolTableRecord
100
AcDbLinetypeTableRecord
  2
DASHDOT2
 70
    0
  3
Dash dot (.5x) _._._._._._._._._._._._._._._.
 72
   65
 73
    4
 40
12.7
 49
6.35
 74
    0
 49
-3.175
 74
    0
 49
0
 74
    0
 49
-3.175
 74
    0
  0
LTYPE
  5
3D
330
5
100
AcDbSymbolTableRecord
100
AcDbLinetypeTableRecord
  2
DASHDOTX2
 70
    0
  3
Dash dot (2x) ____  .  ____  .  ____  .  ___
 72
   65
 73
    4
 40
50.8
 49
25.4
 74
    0
 49
-12.7
 74
    0
 49
0
 74
    0
 49
-12.7
 74
    0
  0
LTYPE
  5
3E
330
5
100
AcDbSymbolTableRecord
100
AcDbLinetypeTableRecord
  2
DIVIDE
 70
    0
  3
Divide ____ . . ____ . . ____ . . ____ . . ____
 72
   65
 73
    6
 40
31.75
 49
12.7
 74
    0
 49
-6.35
 74
    0
 49
0
 74
    0
 49
-6.35
 74
    0
 49
0
 74
    0
 49
-6.35
 74
    0
  0
LTYPE
  5
3F
330
5
100
AcDbSymbolTableRecord
100
AcDbLinetypeTableRecord
  2
DIVIDETINY
 70
    0
  3
Divide (.15x) __..__..__..__..__..__..__..__.._
 72
   65
 73
    6
 40
4.7625
 49
1.905
 74
    0
 49
-0.9525
 74
    0
 49
0
 74
    0
 49
-0.9525
 74
    0
 49
0
 74
    0
 49
-0.9525
 74
    0
  0
LTYPE
  5
40
330
5
100
AcDbSymbolTableRecord
100
AcDbLinetypeTableRecord
  2
DIVIDE2
 70
    0
  3
Divide (.5x) __..__..__..__..__..__..__..__.._
 72
   65
 73
    6
 40
15.875
 49
6.35
 74
    0
 49
-3.175
 74
    0
 49
0
 74
    0
 49
-3.175
 74
    0
 49
0
 74
    0
 49
-3.175
 74
    0
  0
LTYPE
  5
41
330
5
100
AcDbSymbolTableRecord
100
AcDbLinetypeTableRecord
  2
DIVIDEX2
 70
    0
  3
Divide (2x) ________  .  .  ________  .  .  _
 72
   65
 73
    6
 40
63.5
 49
25.4
 74
    0
 49
-12.7
 74
    0
 49
0
 74
    0
 49
-12.7
 74
    0
 49
0
 74
    0
 49
-12.7
 74
    0
  0
LTYPE
  5
42
330
5
100
AcDbSymbolTableRecord
100
AcDbLinetypeTableRecord
  2
BORDER
 70
    0
  3
Border __ __ . __ __ . __ __ . __ __ . __ __ .
 72
   65
 73
    6
 40
44.45
 49
12.7
 74
    0
 49
-6.35
 74
    0
 49
12.7
 74
    0
 49
-6.35
 74
    0
 49
0
 74
    0
 49
-6.35
 74
    0
  0
LTYPE
  5
43
330
5
100
AcDbSymbolTableRecord
100
AcDbLinetypeTableRecord
  2
BORDERTINY
 70
    0
  3
Border (.15x) __.__.__.__.__.__.__.__.__.__.__.
 72
   65
 73
    6
 40
6.6675
 49
1.905
 74
    0
 49
-0.9525
 74
    0
 49
1.905
 74
    0
 49
-0.9525
 74
    0
 49
0
 74
    0
 49
-0.9525
 74
    0
  0
LTYPE
  5
44
330
5
100
AcDbSymbolTableRecord
100
AcDbLinetypeTableRecord
  2
BORDER2
 70
    0
  3
Border (.5x) __.__.__.__.__.__.__.__.__.__.__.
 72
   65
 73
    6
 40
22.225
 49
6.35
 74
    0
 49
-3.175
 74
    0
 49
6.35
 74
    0
 49
-3.175
 74
    0
 49
0
 74
    0
 49
-3.175
 74
    0
  0
LTYPE
  5
45
330
5
100
AcDbSymbolTableRecord
100
AcDbLinetypeTableRecord
  2
BORDERX2
 70
    0
  3
Border (2x) ____  ____  .  ____  ____  .  ___
 72
   65
 73
    6
 40
88.89999999999999
 49
25.4
 74
    0
 49
-12.7
 74
    0
 49
25.4
 74
    0
 49
-12.7
 74
    0
 49
0
 74
    0
 49
-12.7
 74
    0
  0
LTYPE
  5
46
330
5
100
AcDbSymbolTableRecord
100
AcDbLinetypeTableRecord
  2
CENTER
 70
    0
  3
Center ____ _ ____ _ ____ _ ____ _ ____ _ ____
 72
   65
 73
    4
 40
50.8
 49
31.75
 74
    0
 49
-6.35
 74
    0
 49
6.35
 74
    0
 49
-6.35
 74
    0
  0
LTYPE
  5
47
330
5
100
AcDbSymbolTableRecord
100
AcDbLinetypeTableRecord
  2
CENTERTINY
 70
    0
  3
Center (.15x) ___ _ ___ _ ___ _ ___ _ ___ _ ___
 72
   65
 73
    4
 40
7.619999999999999
 49
4.7625
 74
    0
 49
-0.9525
 74
    0
 49
0.9525
 74
    0
 49
-0.9525
 74
    0
  0
LTYPE
  5
48
330
5
100
AcDbSymbolTableRecord
100
AcDbLinetypeTableRecord
  2
CENTER2
 70
    0
  3
Center (.5x) ___ _ ___ _ ___ _ ___ _ ___ _ ___
 72
   65
 73
    4
 40
28.575
 49
19.05
 74
    0
 49
-3.175
 74
    0
 49
3.175
 74
    0
 49
-3.175
 74
    0
  0
LTYPE
  5
49
330
5
100
AcDbSymbolTableRecord
100
AcDbLinetypeTableRecord
  2
CENTERX2
 70
    0
  3
Center (2x) ________  __  ________  __  _____
 72
   65
 73
    4
 40
101.6
 49
63.5
 74
    0
 49
-12.7
 74
    0
 49
12.7
 74
    0
 49
-12.7
 74
    0
  0
ENDTAB
  0
TABLE
  2
LAYER
  5
2
330
0
100
AcDbSymbolTable
 70
    1
  0
LAYER
  5
10
330
2
100
AcDbSymbolTableRecord
100
AcDbLayerTableRecord
  2
0
 70
    0
 62
    7
  6
CONTINUOUS
370
   -3
390
F
  0
LAYER
  5
4A
330
2
100
AcDbSymbolTableRecord
100
AcDbLayerTableRecord
  2
obrazok
 70
    0
 62
  256
  6
CONTINUOUS
370
   -3
390
F
  0
ENDTAB
  0
TABLE
  2
STYLE
  5
3
330
0
100
AcDbSymbolTable
 70
    3
  0
STYLE
  5
4B
330
2
100
AcDbSymbolTableRecord
100
AcDbTextStyleTableRecord
  2
Standard
 70
    0
 40
0
 41
1
 50
0
 71
    0
 42
1
  3
txt
  4

  0
ENDTAB
  0
TABLE
  2
VIEW
  5
6
330
0
100
AcDbSymbolTable
 70
    0
  0
ENDTAB
  0
TABLE
  2
UCS
  5
7
330
0
100
AcDbSymbolTable
 70
    0
  0
ENDTAB
  0
TABLE
  2
APPID
  5
9
330
0
100
AcDbSymbolTable
 70
    1
  0
APPID
  5
12
330
9
100
AcDbSymbolTableRecord
100
AcDbRegAppTableRecord
  2
ACAD
 70
    0
  0
APPID
  5
4C
330
9
100
AcDbSymbolTableRecord
100
AcDbRegAppTableRecord
  2
LibreCad
 70
    0
  0
ENDTAB
  0
TABLE
  2
DIMSTYLE
  5
A
330
0
100
AcDbSymbolTable
 70
    1
100
AcDbDimStyleTable
 71
    1
  0
DIMSTYLE
105
4D
330
A
100
AcDbSymbolTableRecord
100
AcDbDimStyleTableRecord
  2
Standard
 70
    0
 40
0.001
 41
150
 42
0
 43
0.38
 44
125
 45
0
 46
0
 47
0
 48
0
 49
1
140
200
141
0.09
142
0
143
25.4
144
1
145
0
146
1
147
100
148
0
 71
    0
 72
    0
 73
    0
 74
    1
 75
    0
 76
    0
 77
    0
 78
   12
 79
    0
170
    0
171
    2
172
    0
173
    0
174
    0
175
    0
176
    0
177
    0
178
    0
179
    0
271
    2
272
    4
273
    2
274
    2
275
    0
276
    0
277
    2
278
   46
279
    0
280
    0
281
    0
282
    0
283
    1
284
    0
285
    0
286
    0
288
    0
289
    3
340
Romans
341

371
   -2
372
   -2
  0
ENDTAB
  0
TABLE
  2
BLOCK_RECORD
  5
1
330
0
100
AcDbSymbolTable
 70
    2
  0
BLOCK_RECORD
  5
1F
330
1
100
AcDbSymbolTableRecord
100
AcDbBlockTableRecord
  2
*Model_Space
 70
    0
280
    1
281
    0
  0
BLOCK_RECORD
  5
1E
330
1
100
AcDbSymbolTableRecord
100
AcDbBlockTableRecord
  2
*Paper_Space
 70
    0
280
    1
281
    0
  0
BLOCK_RECORD
  5
4E
330
1
100
AcDbSymbolTableRecord
100
AcDbBlockTableRecord
  2
path0
 70
    0
280
    1
281
    0
  0
BLOCK_RECORD
  5
51
330
1
100
AcDbSymbolTableRecord
100
AcDbBlockTableRecord
  2
*U2
 70
    0
280
    1
281
    0
  0
BLOCK_RECORD
  5
54
330
1
100
AcDbSymbolTableRecord
100
AcDbBlockTableRecord
  2
*U3
 70
    0
280
    1
281
    0
  0
BLOCK_RECORD
  5
57
330
1
100
AcDbSymbolTableRecord
100
AcDbBlockTableRecord
  2
*U4
 70
    0
280
    1
281
    0
  0
BLOCK_RECORD
  5
5A
330
1
100
AcDbSymbolTableRecord
100
AcDbBlockTableRecord
  2
*U5
 70
    0
280
    1
281
    0
  0
BLOCK_RECORD
  5
5D
330
1
100
AcDbSymbolTableRecord
100
AcDbBlockTableRecord
  2
path10
 70
    0
280
    1
281
    0
  0
BLOCK_RECORD
  5
60
330
1
100
AcDbSymbolTableRecord
100
AcDbBlockTableRecord
  2
path_1
 70
    0
280
    1
281
    0
  0
BLOCK_RECORD
  5
63
330
1
100
AcDbSymbolTableRecord
100
AcDbBlockTableRecord
  2
path2
 70
    0
280
    1
281
    0
  0
BLOCK_RECORD
  5
66
330
1
100
AcDbSymbolTableRecord
100
AcDbBlockTableRecord
  2
path3
 70
    0
280
    1
281
    0
  0
BLOCK_RECORD
  5
69
330
1
100
AcDbSymbolTableRecord
100
AcDbBlockTableRecord
  2
path4
 70
    0
280
    1
281
    0
  0
BLOCK_RECORD
  5
6C
330
1
100
AcDbSymbolTableRecord
100
AcDbBlockTableRecord
  2
path5
 70
    0
280
    1
281
    0
  0
BLOCK_RECORD
  5
6F
330
1
100
AcDbSymbolTableRecord
100
AcDbBlockTableRecord
  2
path6
 70
    0
280
    1
281
    0
  0
BLOCK_RECORD
  5
72
330
1
100
AcDbSymbolTableRecord
100
AcDbBlockTableRecord
  2
path7
 70
    0
280
    1
281
    0
  0
BLOCK_RECORD
  5
75
330
1
100
AcDbSymbolTableRecord
100
AcDbBlockTableRecord
  2
path8
 70
    0
280
    1
281
    0
  0
BLOCK_RECORD
  5
78
330
1
100
AcDbSymbolTableRecord
100
AcDbBlockTableRecord
  2
path9
 70
    0
280
    1
281
    0
  0
BLOCK_RECORD
  5
7B
330
1
100
AcDbSymbolTableRecord
100
AcDbBlockTableRecord
  2
path11
 70
    0
280
    1
281
    0
  0
BLOCK_RECORD
  5
7E
330
1
100
AcDbSymbolTableRecord
100
AcDbBlockTableRecord
  2
path12
 70
    0
280
    1
281
    0
  0
BLOCK_RECORD
  5
81
330
1
100
AcDbSymbolTableRecord
100
AcDbBlockTableRecord
  2
path13
 70
    0
280
    1
281
    0
  0
BLOCK_RECORD
  5
84
330
1
100
AcDbSymbolTableRecord
100
AcDbBlockTableRecord
  2
path14
 70
    0
280
    1
281
    0
  0
BLOCK_RECORD
  5
87
330
1
100
AcDbSymbolTableRecord
100
AcDbBlockTableRecord
  2
path15
 70
    0
280
    1
281
    0
  0
BLOCK_RECORD
  5
8A
330
1
100
AcDbSymbolTableRecord
100
AcDbBlockTableRecord
  2
path16
 70
    0
280
    1
281
    0
  0
BLOCK_RECORD
  5
8D
330
1
100
AcDbSymbolTableRecord
100
AcDbBlockTableRecord
  2
path17
 70
    0
280
    1
281
    0
  0
BLOCK_RECORD
  5
90
330
1
100
AcDbSymbolTableRecord
100
AcDbBlockTableRecord
  2
path18
 70
    0
280
    1
281
    0
  0
BLOCK_RECORD
  5
93
330
1
100
AcDbSymbolTableRecord
100
AcDbBlockTableRecord
  2
path20
 70
    0
280
    1
281
    0
  0
BLOCK_RECORD
  5
96
330
1
100
AcDbSymbolTableRecord
100
AcDbBlockTableRecord
  2
path21
 70
    0
280
    1
281
    0
  0
BLOCK_RECORD
  5
99
330
1
100
AcDbSymbolTableRecord
100
AcDbBlockTableRecord
  2
path22
 70
    0
280
    1
281
    0
  0
BLOCK_RECORD
  5
9C
330
1
100
AcDbSymbolTableRecord
100
AcDbBlockTableRecord
  2
path23
 70
    0
280
    1
281
    0
  0
BLOCK_RECORD
  5
9F
330
1
100
AcDbSymbolTableRecord
100
AcDbBlockTableRecord
  2
path24
 70
    0
280
    1
281
    0
  0
BLOCK_RECORD
  5
A2
330
1
100
AcDbSymbolTableRecord
100
AcDbBlockTableRecord
  2
path25
 70
    0
280
    1
281
    0
  0
BLOCK_RECORD
  5
A5
330
1
100
AcDbSymbolTableRecord
100
AcDbBlockTableRecord
  2
path26
 70
    0
280
    1
281
    0
  0
BLOCK_RECORD
  5
A8
330
1
100
AcDbSymbolTableRecord
100
AcDbBlockTableRecord
  2
path27
 70
    0
280
    1
281
    0
  0
BLOCK_RECORD
  5
AB
330
1
100
AcDbSymbolTableRecord
100
AcDbBlockTableRecord
  2
path28
 70
    0
280
    1
281
    0
  0
BLOCK_RECORD
  5
AE
330
1
100
AcDbSymbolTableRecord
100
AcDbBlockTableRecord
  2
path29
 70
    0
280
    1
281
    0
  0
BLOCK_RECORD
  5
B1
330
1
100
AcDbSymbolTableRecord
100
AcDbBlockTableRecord
  2
path30
 70
    0
280
    1
281
    0
  0
BLOCK_RECORD
  5
B4
330
1
100
AcDbSymbolTableRecord
100
AcDbBlockTableRecord
  2
path31
 70
    0
280
    1
281
    0
  0
BLOCK_RECORD
  5
B7
330
1
100
AcDbSymbolTableRecord
100
AcDbBlockTableRecord
  2
path32
 70
    0
280
    1
281
    0
  0
BLOCK_RECORD
  5
BA
330
1
100
AcDbSymbolTableRecord
100
AcDbBlockTableRecord
  2
path33
 70
    0
280
    1
281
    0
  0
BLOCK_RECORD
  5
BD
330
1
100
AcDbSymbolTableRecord
100
AcDbBlockTableRecord
  2
path34
 70
    0
280
    1
281
    0
  0
BLOCK_RECORD
  5
C0
330
1
100
AcDbSymbolTableRecord
100
AcDbBlockTableRecord
  2
path35
 70
    0
280
    1
281
    0
  0
BLOCK_RECORD
  5
C3
330
1
100
AcDbSymbolTableRecord
100
AcDbBlockTableRecord
  2
path36
 70
    0
280
    1
281
    0
  0
BLOCK_RECORD
  5
C6
330
1
100
AcDbSymbolTableRecord
100
AcDbBlockTableRecord
  2
path37
 70
    0
280
    1
281
    0
  0
BLOCK_RECORD
  5
C9
330
1
100
AcDbSymbolTableRecord
100
AcDbBlockTableRecord
  2
path38
 70
    0
280
    1
281
    0
  0
BLOCK_RECORD
  5
CC
330
1
100
AcDbSymbolTableRecord
100
AcDbBlockTableRecord
  2
path39
 70
    0
280
    1
281
    0
  0
BLOCK_RECORD
  5
CF
330
1
100
AcDbSymbolTableRecord
100
AcDbBlockTableRecord
  2
path40
 70
    0
280
    1
281
    0
  0
BLOCK_RECORD
  5
D2
330
1
100
AcDbSymbolTableRecord
100
AcDbBlockTableRecord
  2
path41
 70
    0
280
    1
281
    0
  0
BLOCK_RECORD
  5
D5
330
1
100
AcDbSymbolTableRecord
100
AcDbBlockTableRecord
  2
path43
 70
    0
280
    1
281
    0
  0
BLOCK_RECORD
  5
D8
330
1
100
AcDbSymbolTableRecord
100
AcDbBlockTableRecord
  2
path44
 70
    0
280
    1
281
    0
  0
BLOCK_RECORD
  5
DB
330
1
100
AcDbSymbolTableRecord
100
AcDbBlockTableRecord
  2
path45
 70
    0
280
    1
281
    0
  0
BLOCK_RECORD
  5
DE
330
1
100
AcDbSymbolTableRecord
100
AcDbBlockTableRecord
  2
path46
 70
    0
280
    1
281
    0
  0
BLOCK_RECORD
  5
E1
330
1
100
AcDbSymbolTableRecord
100
AcDbBlockTableRecord
  2
path47
 70
    0
280
    1
281
    0
  0
BLOCK_RECORD
  5
E4
330
1
100
AcDbSymbolTableRecord
100
AcDbBlockTableRecord
  2
path48
 70
    0
280
    1
281
    0
  0
BLOCK_RECORD
  5
E7
330
1
100
AcDbSymbolTableRecord
100
AcDbBlockTableRecord
  2
path49
 70
    0
280
    1
281
    0
  0
BLOCK_RECORD
  5
EA
330
1
100
AcDbSymbolTableRecord
100
AcDbBlockTableRecord
  2
path50
 70
    0
280
    1
281
    0
  0
BLOCK_RECORD
  5
ED
330
1
100
AcDbSymbolTableRecord
100
AcDbBlockTableRecord
  2
path51
 70
    0
280
    1
281
    0
  0
BLOCK_RECORD
  5
F0
330
1
100
AcDbSymbolTableRecord
100
AcDbBlockTableRecord
  2
path52
 70
    0
280
    1
281
    0
  0
BLOCK_RECORD
  5
F3
330
1
100
AcDbSymbolTableRecord
100
AcDbBlockTableRecord
  2
path53
 70
    0
280
    1
281
    0
  0
BLOCK_RECORD
  5
F6
330
1
100
AcDbSymbolTableRecord
100
AcDbBlockTableRecord
  2
path54
 70
    0
280
    1
281
    0
  0
BLOCK_RECORD
  5
F9
330
1
100
AcDbSymbolTableRecord
100
AcDbBlockTableRecord
  2
path55
 70
    0
280
    1
281
    0
  0
BLOCK_RECORD
  5
FC
330
1
100
AcDbSymbolTableRecord
100
AcDbBlockTableRecord
  2
path56
 70
    0
280
    1
281
    0
  0
BLOCK_RECORD
  5
FF
330
1
100
AcDbSymbolTableRecord
100
AcDbBlockTableRecord
  2
path57
 70
    0
280
    1
281
    0
  0
BLOCK_RECORD
  5
102
330
1
100
AcDbSymbolTableRecord
100
AcDbBlockTableRecord
  2
path60
 70
    0
280
    1
281
    0
  0
BLOCK_RECORD
  5
105
330
1
100
AcDbSymbolTableRecord
100
AcDbBlockTableRecord
  2
path61
 70
    0
280
    1
281
    0
  0
BLOCK_RECORD
  5
108
330
1
100
AcDbSymbolTableRecord
100
AcDbBlockTableRecord
  2
path62
 70
    0
280
    1
281
    0
  0
BLOCK_RECORD
  5
10B
330
1
100
AcDbSymbolTableRecord
100
AcDbBlockTableRecord
  2
path63
 70
    0
280
    1
281
    0
  0
BLOCK_RECORD
  5
10E
330
1
100
AcDbSymbolTableRecord
100
AcDbBlockTableRecord
  2
path64
 70
    0
280
    1
281
    0
  0
BLOCK_RECORD
  5
111
330
1
100
AcDbSymbolTableRecord
100
AcDbBlockTableRecord
  2
path65
 70
    0
280
    1
281
    0
  0
BLOCK_RECORD
  5
114
330
1
100
AcDbSymbolTableRecord
100
AcDbBlockTableRecord
  2
path66
 70
    0
280
    1
281
    0
  0
BLOCK_RECORD
  5
117
330
1
100
AcDbSymbolTableRecord
100
AcDbBlockTableRecord
  2
path67
 70
    0
280
    1
281
    0
  0
BLOCK_RECORD
  5
11A
330
1
100
AcDbSymbolTableRecord
100
AcDbBlockTableRecord
  2
path70
 70
    0
280
    1
281
    0
  0
BLOCK_RECORD
  5
11D
330
1
100
AcDbSymbolTableRecord
100
AcDbBlockTableRecord
  2
path71
 70
    0
280
    1
281
    0
  0
ENDTAB
  0
ENDSEC
  0
SECTION
  2
BLOCKS
  0
BLOCK
  5
20
330
1F
100
AcDbEntity
  8
0
100
AcDbBlockBegin
  2
*Model_Space
 70
    0
 10
0
 20
0
 30
0
  3
*Model_Space
  1

  0
ENDBLK
  5
21
330
1F
100
AcDbEntity
  8
0
100
AcDbBlockEnd
  0
BLOCK
  5
1C
330
1B
100
AcDbEntity
  8
0
100
AcDbBlockBegin
  2
*Paper_Space
 70
    0
 10
0
 20
0
 30
0
  3
*Paper_Space
  1

  0
ENDBLK
  5
1D
330
1F
100
AcDbEntity
  8
0
100
AcDbBlockEnd
  0
BLOCK
  5
4F
330
4E
100
AcDbEntity
  8
0
100
AcDbBlockBegin
  2
path0
 70
    0
 10
0
 20
0
  3
path0
  1

  0
LINE
  5
120
100
AcDbEntity
  8
0
  6
ByLayer
 62
    3
370
   -1
100
AcDbLine
 10
-4.980342230950919
 20
0.9585964215252168
 11
-4.520342230950919
 21
1.418596421525215
  0
LINE
  5
121
100
AcDbEntity
  8
0
  6
ByLayer
 62
    1
370
   -1
100
AcDbLine
 10
-4.980342230950919
 20
0.9585964215252168
 11
-4.768210196594954
 21
1.170728455881181
  0
ENDBLK
  5
50
330
4E
100
AcDbEntity
  8
0
100
AcDbBlockEnd
  0
BLOCK
  5
52
330
51
100
AcDbEntity
  8
0
100
AcDbBlockBegin
  2
*U2
 70
    0
 10
0
 20
0
  3
*U2
  1

  0
LWPOLYLINE
  5
122
100
AcDbEntity
  8
0
  6
ByLayer
 62
    3
370
   -1
100
AcDbPolyline
 90
    2
 70
    0
 43
0
 10
2.723054859080074
 20
7e-16
 10
9e-16
 20
1.1e-15
  0
LINE
  5
123
100
AcDbEntity
  8
0
  6
ByLayer
 62
    1
370
   -1
100
AcDbLine
 10
0
 20
0
 11
0.2121320343559647
 21
0.2121320343559641
  0
ENDBLK
  5
53
330
51
100
AcDbEntity
  8
0
100
AcDbBlockEnd
  0
BLOCK
  5
55
330
54
100
AcDbEntity
  8
0
100
AcDbBlockBegin
  2
*U3
 70
    0
 10
0
 20
0
  3
*U3
  1

  0
LWPOLYLINE
  5
124
100
AcDbEntity
  8
0
  6
ByLayer
 62
    3
370
   -1
100
AcDbPolyline
 90
    2
 70
    0
 43
0
 10
2.723054859080074
 20
7e-16
 10
9e-16
 20
1.1e-15
  0
LINE
  5
125
100
AcDbEntity
  8
0
  6
ByLayer
 62
    1
370
   -1
100
AcDbLine
 10
0
 20
0
 11
0.2121320343559647
 21
0.2121320343559641
  0
ENDBLK
  5
56
330
54
100
AcDbEntity
  8
0
100
AcDbBlockEnd
  0
BLOCK
  5
58
330
57
100
AcDbEntity
  8
0
100
AcDbBlockBegin
  2
*U4
 70
    0
 10
0
 20
0
  3
*U4
  1

  0
LWPOLYLINE
  5
126
100
AcDbEntity
  8
0
  6
ByLayer
 62
    3
370
   -1
100
AcDbPolyline
 90
    2
 70
    0
 43
0
 10
2.723054859080074
 20
7e-16
 10
9e-16
 20
1.1e-15
  0
LINE
  5
127
100
AcDbEntity
  8
0
  6
ByLayer
 62
    1
370
   -1
100
AcDbLine
 10
0
 20
0
 11
0.2121320343559647
 21
0.2121320343559641
  0
ENDBLK
  5
59
330
57
100
AcDbEntity
  8
0
100
AcDbBlockEnd
  0
BLOCK
  5
5B
330
5A
100
AcDbEntity
  8
0
100
AcDbBlockBegin
  2
*U5
 70
    0
 10
0
 20
0
  3
*U5
  1

  0
LWPOLYLINE
  5
128
100
AcDbEntity
  8
0
  6
ByLayer
 62
    3
370
   -1
100
AcDbPolyline
 90
    2
 70
    0
 43
0
 10
2.723054859080074
 20
7e-16
 10
9e-16
 20
1.1e-15
  0
LINE
  5
129
100
AcDbEntity
  8
0
  6
ByLayer
 62
    1
370
   -1
100
AcDbLine
 10
0
 20
0
 11
0.2121320343559647
 21
0.2121320343559641
  0
ENDBLK
  5
5C
330
5A
100
AcDbEntity
  8
0
100
AcDbBlockEnd
  0
BLOCK
  5
5E
330
5D
100
AcDbEntity
  8
0
100
AcDbBlockBegin
  2
path10
 70
    0
 10
0
 20
0
  3
path10
  1

  0
LINE
  5
12A
100
AcDbEntity
  8
0
  6
ByLayer
 62
    3
370
   -1
100
AcDbLine
 10
0
 20
-6.253171104e-07
 11
0.46
 21
0.4599993746828904
  0
LINE
  5
12B
100
AcDbEntity
  8
0
  6
ByLayer
 62
    1
370
   -1
100
AcDbLine
 10
0
 20
-6.253171102e-07
 11
0.2121320343559647
 21
0.2121314090388538
  0
ENDBLK
  5
5F
330
5D
100
AcDbEntity
  8
0
100
AcDbBlockEnd
  0
BLOCK
  5
61
330
60
100
AcDbEntity
  8
0
100
AcDbBlockBegin
  2
path_1
 70
    0
 10
0
 20
0
  3
path_1
  1

  0
LINE
  5
12C
100
AcDbEntity
  8
0
  6
ByLayer
 62
    3
370
   -1
100
AcDbLine
 10
-4.980342230950919
 20
0.9585964215252168
 11
-4.980342230950919
 21
-0.7729571373240667
  0
LINE
  5
12D
100
AcDbEntity
  8
0
  6
ByLayer
 62
    1
370
   -1
100
AcDbLine
 10
-4.980341990303211
 20
-0.7729569769880982
 11
-5.11823224947614
 21
-0.5065244781723141
  0
ENDBLK
  5
62
330
60
100
AcDbEntity
  8
0
100
AcDbBlockEnd
  0
BLOCK
  5
64
330
63
100
AcDbEntity
  8
0
100
AcDbBlockBegin
  2
path2
 70
    0
 10
0
 20
0
  3
path2
  1

  0
LINE
  5
12E
100
AcDbEntity
  8
0
  6
ByLayer
 62
    1
370
   -1
100
AcDbLine
 10
-4.520342230950919
 20
1.418596421525215
 11
-4.308210196594953
 21
1.63072845588118
  0
LINE
  5
12F
100
AcDbEntity
  8
0
  6
ByLayer
 62
    3
370
   -1
100
AcDbLine
 10
-4.520342230950919
 20
1.418596421525215
 11
-1.797287371870843
 21
1.418596421525215
  0
ENDBLK
  5
65
330
63
100
AcDbEntity
  8
0
100
AcDbBlockEnd
  0
BLOCK
  5
67
330
66
100
AcDbEntity
  8
0
100
AcDbBlockBegin
  2
path3
 70
    0
 10
0
 20
0
  3
path3
  1

  0
LINE
  5
130
100
AcDbEntity
  8
0
  6
ByLayer
 62
    1
370
   -1
100
AcDbLine
 10
-1.797287371870841
 20
1.418596421525215
 11
-1.585155337514876
 21
1.630728455881179
  0
LINE
  5
131
100
AcDbEntity
  8
0
  6
ByLayer
 62
    3
370
   -1
100
AcDbLine
 10
-1.797287371870841
 20
1.418596421525215
 11
-0.8772873718708432
 21
1.418596421525215
  0
ENDBLK
  5
68
330
66
100
AcDbEntity
  8
0
100
AcDbBlockEnd
  0
BLOCK
  5
6A
330
69
100
AcDbEntity
  8
0
100
AcDbBlockBegin
  2
path4
 70
    0
 10
0
 20
0
  3
path4
  1

  0
LINE
  5
132
100
AcDbEntity
  8
0
  6
ByLayer
 62
    3
370
   -1
100
AcDbLine
 10
-1.337287371870843
 20
0.9585964215252168
 11
-1.797287371870842
 21
1.418596421525215
  0
LINE
  5
133
100
AcDbEntity
  8
0
  6
ByLayer
 62
    1
370
   -1
100
AcDbLine
 10
-1.797287371870841
 20
1.418596421525215
 11
-1.746037164436074
 21
1.222205447532587
  0
ENDBLK
  5
6B
330
69
100
AcDbEntity
  8
0
100
AcDbBlockEnd
  0
BLOCK
  5
6D
330
6C
100
AcDbEntity
  8
0
100
AcDbBlockBegin
  2
path5
 70
    0
 10
0
 20
0
  3
path5
  1

  0
LINE
  5
134
100
AcDbEntity
  8
0
  6
ByLayer
 62
    1
370
   -1
100
AcDbLine
 10
-1.337287371870843
 20
0.9585964215252172
 11
-1.125155337514877
 21
1.170728455881181
  0
LINE
  5
135
100
AcDbEntity
  8
0
  6
ByLayer
 62
    3
370
   -1
100
AcDbLine
 10
-1.337287371870843
 20
0.9585964215252172
 11
-1.337287371870843
 21
-0.7729571373240667
  0
ENDBLK
  5
6E
330
6C
100
AcDbEntity
  8
0
100
AcDbBlockEnd
  0
BLOCK
  5
70
330
6F
100
AcDbEntity
  8
0
100
AcDbBlockBegin
  2
path6
 70
    0
 10
0
 20
0
  3
path6
  1

  0
LINE
  5
136
100
AcDbEntity
  8
0
  6
ByLayer
 62
    3
370
   -1
100
AcDbLine
 10
-1.337287371870843
 20
0.9585964215252168
 11
-0.8772873718708432
 21
1.418596421525215
  0
LINE
  5
137
100
AcDbEntity
  8
0
  6
ByLayer
 62
    1
370
   -1
100
AcDbLine
 10
-0.8772873718708432
 20
1.418596421525215
 11
-0.6651553375148787
 21
1.630728455881179
  0
ENDBLK
  5
71
330
6F
100
AcDbEntity
  8
0
100
AcDbBlockEnd
  0
BLOCK
  5
73
330
72
100
AcDbEntity
  8
0
100
AcDbBlockBegin
  2
path7
 70
    0
 10
0
 20
0
  3
path7
  1

  0
LINE
  5
138
100
AcDbEntity
  8
0
  6
ByLayer
 62
    1
370
   -1
100
AcDbLine
 10
-0.8772873718708432
 20
1.418596421525215
 11
-0.7387524142607163
 21
1.324303060061367
  0
LINE
  5
139
100
AcDbEntity
  8
0
  6
ByLayer
 62
    1
370
   -1
100
AcDbLine
 10
-0.2667723637195742
 20
1.418596421525214
 11
-0.3880510194179578
 21
1.336732645171366
  0
LINE
  5
13A
100
AcDbEntity
  8
0
  6
ByLayer
 62
    3
370
   -1
100
AcDbLine
 10
-0.8772873718708432
 20
1.418596421525215
 11
-0.2667723637195729
 21
1.418596421525215
  0
ENDBLK
  5
74
330
72
100
AcDbEntity
  8
0
100
AcDbBlockEnd
  0
BLOCK
  5
76
330
75
100
AcDbEntity
  8
0
100
AcDbBlockBegin
  2
path8
 70
    0
 10
0
 20
0
  3
path8
  1

  0
LINE
  5
13B
100
AcDbEntity
  8
0
  6
ByLayer
 62
    3
370
   -1
100
AcDbLine
 10
-1.337287371870843
 20
-0.7729571373240667
 11
-1.337287371870843
 21
-1.584510696173345
  0
LINE
  5
13C
100
AcDbEntity
  8
0
  6
ByLayer
 62
    1
370
   -1
100
AcDbLine
 10
-1.337287371870843
 20
-0.7729571373240665
 11
-1.125155337514877
 21
-0.5608251029681024
  0
ENDBLK
  5
77
330
75
100
AcDbEntity
  8
0
100
AcDbBlockEnd
  0
BLOCK
  5
79
330
78
100
AcDbEntity
  8
0
100
AcDbBlockBegin
  2
path9
 70
    0
 10
0
 20
0
  3
path9
  1

  0
LINE
  5
13D
100
AcDbEntity
  8
0
  6
ByLayer
 62
    3
370
   -1
100
AcDbLine
 10
-1.337287371870843
 20
-0.7729571373240667
 11
-1.797287371870842
 21
-0.3129571373240658
  0
LINE
  5
13E
100
AcDbEntity
  8
0
  6
ByLayer
 62
    1
370
   -1
100
AcDbLine
 10
-1.797287371870842
 20
-0.3129571373240658
 11
-1.585155337514878
 21
-0.1008251029681018
  0
ENDBLK
  5
7A
330
78
100
AcDbEntity
  8
0
100
AcDbBlockEnd
  0
BLOCK
  5
7C
330
7B
100
AcDbEntity
  8
0
100
AcDbBlockBegin
  2
path11
 70
    0
 10
0
 20
0
  3
path11
  1

  0
LINE
  5
13F
100
AcDbEntity
  8
0
  6
ByLayer
 62
    3
370
   -1
100
AcDbLine
 10
-1.797287371870842
 20
-0.3129571373240656
 11
-4.520342230950919
 21
-0.3129571373240656
  0
LINE
  5
140
100
AcDbEntity
  8
0
  6
ByLayer
 62
    1
370
   -1
100
AcDbLine
 10
-4.520342230950917
 20
-0.3129571373240656
 11
-4.308210196594951
 21
-0.1008251029681015
  0
ENDBLK
  5
7D
330
7B
100
AcDbEntity
  8
0
100
AcDbBlockEnd
  0
BLOCK
  5
7F
330
7E
100
AcDbEntity
  8
0
100
AcDbBlockBegin
  2
path12
 70
    0
 10
0
 20
0
  3
path12
  1

  0
LINE
  5
141
100
AcDbEntity
  8
0
  6
ByLayer
 62
    1
370
   -1
100
AcDbLine
 10
-4.980342230950919
 20
-1.584510696173345
 11
-4.768210196594954
 21
-1.372378661817381
  0
LINE
  5
142
100
AcDbEntity
  8
0
  6
ByLayer
 62
    3
370
   -1
100
AcDbLine
 10
-4.980342230950919
 20
-0.7729571373240667
 11
-4.980342230950919
 21
-1.584510696173345
  0
ENDBLK
  5
80
330
7E
100
AcDbEntity
  8
0
100
AcDbBlockEnd
  0
BLOCK
  5
82
330
81
100
AcDbEntity
  8
0
100
AcDbBlockBegin
  2
path13
 70
    0
 10
0
 20
0
  3
path13
  1

  0
LINE
  5
143
100
AcDbEntity
  8
0
  6
ByLayer
 62
    3
370
   -1
100
AcDbLine
 10
-4.980342230950919
 20
-1.584510696173345
 11
-4.520342230950919
 21
-2.044510696173346
  0
LINE
  5
144
100
AcDbEntity
  8
0
  6
ByLayer
 62
    1
370
   -1
100
AcDbLine
 10
-4.520342230950917
 20
-2.044510696173348
 11
-4.308210196594951
 21
-1.832378661817383
  0
ENDBLK
  5
83
330
81
100
AcDbEntity
  8
0
100
AcDbBlockEnd
  0
BLOCK
  5
85
330
84
100
AcDbEntity
  8
0
100
AcDbBlockBegin
  2
path14
 70
    0
 10
0
 20
0
  3
path14
  1

  0
LINE
  5
145
100
AcDbEntity
  8
0
  6
ByLayer
 62
    3
370
   -1
100
AcDbLine
 10
-4.980342230950919
 20
-2.504510696173348
 11
-4.520342230950919
 21
-2.044510696173346
  0
LINE
  5
146
100
AcDbEntity
  8
0
  6
ByLayer
 62
    1
370
   -1
100
AcDbLine
 10
-4.980342230950919
 20
-2.504510696173348
 11
-4.768210196594954
 21
-2.292378661817383
  0
ENDBLK
  5
86
330
84
100
AcDbEntity
  8
0
100
AcDbBlockEnd
  0
BLOCK
  5
88
330
87
100
AcDbEntity
  8
0
100
AcDbBlockBegin
  2
path15
 70
    0
 10
0
 20
0
  3
path15
  1

  0
LINE
  5
147
100
AcDbEntity
  8
0
  6
ByLayer
 62
    3
370
   -1
100
AcDbLine
 10
-4.980342230950919
 20
-2.504510696173348
 11
-4.980342230950919
 21
-1.584510696173345
  0
LINE
  5
148
100
AcDbEntity
  8
0
  6
ByLayer
 62
    1
370
   -1
100
AcDbLine
 10
-4.980342230950919
 20
-2.504510696173348
 11
-5.117385596895701
 21
-2.211893830983456
  0
ENDBLK
  5
89
330
87
100
AcDbEntity
  8
0
100
AcDbBlockEnd
  0
BLOCK
  5
8B
330
8A
100
AcDbEntity
  8
0
100
AcDbBlockBegin
  2
path16
 70
    0
 10
0
 20
0
  3
path16
  1

  0
LINE
  5
149
100
AcDbEntity
  8
0
  6
ByLayer
 62
    1
370
   -1
100
AcDbLine
 10
-4.980342230950919
 20
-4.320526454299526
 11
-4.768210196594954
 21
-4.108394419943563
  0
LINE
  5
14A
100
AcDbEntity
  8
0
  6
ByLayer
 62
    3
370
   -1
100
AcDbLine
 10
-4.980342230950919
 20
-2.504510696173348
 11
-4.980342230950919
 21
-4.320526454299526
  0
ENDBLK
  5
8C
330
8A
100
AcDbEntity
  8
0
100
AcDbBlockEnd
  0
BLOCK
  5
8E
330
8D
100
AcDbEntity
  8
0
100
AcDbBlockBegin
  2
path17
 70
    0
 10
0
 20
0
  3
path17
  1

  0
LINE
  5
14B
100
AcDbEntity
  8
0
  6
ByLayer
 62
    3
370
   -1
100
AcDbLine
 10
-4.980342230950919
 20
-4.320526454299526
 11
-3.944077929637928
 21
-5.50761781387191
  0
LINE
  5
14C
100
AcDbEntity
  8
0
  6
ByLayer
 62
    1
370
   -1
100
AcDbLine
 10
-3.944077929637928
 20
-5.50761781387191
 11
-3.731945895281965
 21
-5.295485779515948
  0
ENDBLK
  5
8F
330
8D
100
AcDbEntity
  8
0
100
AcDbBlockEnd
  0
BLOCK
  5
91
330
90
100
AcDbEntity
  8
0
100
AcDbBlockBegin
  2
path18
 70
    0
 10
0
 20
0
  3
path18
  1

  0
LINE
  5
14D
100
AcDbEntity
  8
0
  6
ByLayer
 62
    1
370
   -1
100
AcDbLine
 10
-1.79728737187084
 20
-5.50761781387191
 11
-1.585155337514875
 21
-5.295485779515948
  0
LINE
  5
14E
100
AcDbEntity
  8
0
  6
ByLayer
 62
    3
370
   -1
100
AcDbLine
 10
-3.944077929637928
 20
-5.50761781387191
 11
-1.79728737187084
 21
-5.50761781387191
  0
ENDBLK
  5
92
330
90
100
AcDbEntity
  8
0
100
AcDbBlockEnd
  0
BLOCK
  5
94
330
93
100
AcDbEntity
  8
0
100
AcDbBlockBegin
  2
path20
 70
    0
 10
0
 20
0
  3
path20
  1

  0
LINE
  5
14F
100
AcDbEntity
  8
0
  6
ByLayer
 62
    3
370
   -1
100
AcDbLine
 10
-1.337287371870843
 20
-5.047617813871912
 11
-1.797287371870842
 21
-5.507617813871912
  0
LINE
  5
150
100
AcDbEntity
  8
0
  6
ByLayer
 62
    1
370
   -1
100
AcDbLine
 10
-1.337287371870843
 20
-5.047617813871912
 11
-1.572921566738159
 21
-5.111247073799063
  0
ENDBLK
  5
95
330
93
100
AcDbEntity
  8
0
100
AcDbBlockEnd
  0
BLOCK
  5
97
330
96
100
AcDbEntity
  8
0
100
AcDbBlockBegin
  2
path21
 70
    0
 10
0
 20
0
  3
path21
  1

  0
LINE
  5
151
100
AcDbEntity
  8
0
  6
ByLayer
 62
    3
370
   -1
100
AcDbLine
 10
-1.79728737187084
 20
-5.50761781387191
 11
-0.8772873718708449
 21
-5.50761781387191
  0
LINE
  5
152
100
AcDbEntity
  8
0
  6
ByLayer
 62
    1
370
   -1
100
AcDbLine
 10
-0.8772873718708432
 20
-5.507617813871912
 11
-0.6651553375148787
 21
-5.295485779515949
  0
ENDBLK
  5
98
330
96
100
AcDbEntity
  8
0
100
AcDbBlockEnd
  0
BLOCK
  5
9A
330
99
100
AcDbEntity
  8
0
100
AcDbBlockBegin
  2
path22
 70
    0
 10
0
 20
0
  3
path22
  1

  0
LINE
  5
153
100
AcDbEntity
  8
0
  6
ByLayer
 62
    1
370
   -1
100
AcDbLine
 10
-0.8772873718708449
 20
-5.50761781387191
 11
-0.7090890572860645
 21
-5.583400628078948
  0
LINE
  5
154
100
AcDbEntity
  8
0
  6
ByLayer
 62
    1
370
   -1
100
AcDbLine
 10
-0.2667723637195745
 20
-5.50761781387191
 11
-0.401349359047913
 21
-5.567212637104148
  0
LINE
  5
155
100
AcDbEntity
  8
0
  6
ByLayer
 62
    3
370
   -1
100
AcDbLine
 10
-0.8772873718708449
 20
-5.50761781387191
 11
-0.2667723637195745
 21
-5.50761781387191
  0
ENDBLK
  5
9B
330
99
100
AcDbEntity
  8
0
100
AcDbBlockEnd
  0
BLOCK
  5
9D
330
9C
100
AcDbEntity
  8
0
100
AcDbBlockBegin
  2
path23
 70
    0
 10
0
 20
0
  3
path23
  1

  0
LINE
  5
156
100
AcDbEntity
  8
0
  6
ByLayer
 62
    3
370
   -1
100
AcDbLine
 10
-1.337287371870843
 20
-5.047617813871912
 11
-0.8772873718708432
 21
-5.507617813871912
  0
LINE
  5
157
100
AcDbEntity
  8
0
  6
ByLayer
 62
    1
370
   -1
100
AcDbLine
 10
-1.337287371870843
 20
-5.047617813871912
 11
-1.125155337514877
 21
-4.835485779515948
  0
ENDBLK
  5
9E
330
9C
100
AcDbEntity
  8
0
100
AcDbBlockEnd
  0
BLOCK
  5
A0
330
9F
100
AcDbEntity
  8
0
100
AcDbBlockBegin
  2
path24
 70
    0
 10
0
 20
0
  3
path24
  1

  0
LINE
  5
158
100
AcDbEntity
  8
0
  6
ByLayer
 62
    3
370
   -1
100
AcDbLine
 10
-1.337287371870843
 20
-3.93816686171518
 11
-1.337287371870843
 21
-5.047617813871912
  0
LINE
  5
159
100
AcDbEntity
  8
0
  6
ByLayer
 62
    1
370
   -1
100
AcDbLine
 10
-1.337287371870843
 20
-3.93816686171518
 11
-1.125155337514877
 21
-3.726034827359216
  0
ENDBLK
  5
A1
330
9F
100
AcDbEntity
  8
0
100
AcDbBlockEnd
  0
BLOCK
  5
A3
330
A2
100
AcDbEntity
  8
0
100
AcDbBlockBegin
  2
path25
 70
    0
 10
0
 20
0
  3
path25
  1

  0
LINE
  5
15A
100
AcDbEntity
  8
0
  6
ByLayer
 62
    3
370
   -1
100
AcDbLine
 10
-1.337287371870843
 20
-3.93816686171518
 11
-1.797287371870842
 21
-3.47816686171518
  0
LINE
  5
15B
100
AcDbEntity
  8
0
  6
ByLayer
 62
    1
370
   -1
100
AcDbLine
 10
-1.797287371870841
 20
-3.47816686171518
 11
-1.585155337514878
 21
-3.266034827359216
  0
ENDBLK
  5
A4
330
A2
100
AcDbEntity
  8
0
100
AcDbBlockEnd
  0
BLOCK
  5
A6
330
A5
100
AcDbEntity
  8
0
100
AcDbBlockBegin
  2
path26
 70
    0
 10
0
 20
0
  3
path26
  1

  0
LINE
  5
15C
100
AcDbEntity
  8
0
  6
ByLayer
 62
    3
370
   -1
100
AcDbLine
 10
-1.337287371870843
 20
-3.93816686171518
 11
-1.337287371870843
 21
-3.01816686171518
  0
LINE
  5
15D
100
AcDbEntity
  8
0
  6
ByLayer
 62
    1
370
   -1
100
AcDbLine
 10
-1.337287371870843
 20
-3.01816686171518
 11
-1.125155337514877
 21
-2.806034827359214
  0
ENDBLK
  5
A7
330
A5
100
AcDbEntity
  8
0
100
AcDbBlockEnd
  0
BLOCK
  5
A9
330
A8
100
AcDbEntity
  8
0
100
AcDbBlockBegin
  2
path27
 70
    0
 10
0
 20
0
  3
path27
  1

  0
LINE
  5
15E
100
AcDbEntity
  8
0
  6
ByLayer
 62
    3
370
   -1
100
AcDbLine
 10
-1.337287371870843
 20
-3.01816686171518
 11
-1.797287371870842
 21
-3.47816686171518
  0
LINE
  5
15F
100
AcDbEntity
  8
0
  6
ByLayer
 62
    1
370
   -1
100
AcDbLine
 10
-1.337287371870843
 20
-3.01816686171518
 11
-1.558108598036028
 21
-3.123109481247809
  0
ENDBLK
  5
AA
330
A8
100
AcDbEntity
  8
0
100
AcDbBlockEnd
  0
BLOCK
  5
AC
330
AB
100
AcDbEntity
  8
0
100
AcDbBlockBegin
  2
path28
 70
    0
 10
0
 20
0
  3
path28
  1

  0
LINE
  5
160
100
AcDbEntity
  8
0
  6
ByLayer
 62
    3
370
   -1
100
AcDbLine
 10
-3.600342230950918
 20
-3.47816686171518
 11
-1.797287371870842
 21
-3.47816686171518
  0
LINE
  5
161
100
AcDbEntity
  8
0
  6
ByLayer
 62
    1
370
   -1
100
AcDbLine
 10
-3.600342230950918
 20
-3.47816686171518
 11
-3.388210196594953
 21
-3.266034827359216
  0
LINE
  5
162
100
AcDbEntity
  8
0
  6
ByLayer
 62
    1
370
   -1
100
AcDbLine
 10
-1.797287371870842
 20
-3.47816686171518
 11
-2.003372153638831
 21
-3.272082079947192
  0
ENDBLK
  5
AD
330
AB
100
AcDbEntity
  8
0
100
AcDbBlockEnd
  0
BLOCK
  5
AF
330
AE
100
AcDbEntity
  8
0
100
AcDbBlockBegin
  2
path29
 70
    0
 10
0
 20
0
  3
path29
  1

  0
LINE
  5
163
100
AcDbEntity
  8
0
  6
ByLayer
 62
    3
370
   -1
100
AcDbLine
 10
-4.060342230950919
 20
-3.01816686171518
 11
-3.600342230950918
 21
-3.47816686171518
  0
LINE
  5
164
100
AcDbEntity
  8
0
  6
ByLayer
 62
    1
370
   -1
100
AcDbLine
 10
-4.060342230950919
 20
-3.01816686171518
 11
-3.848210196594953
 21
-2.806034827359214
  0
ENDBLK
  5
B0
330
AE
100
AcDbEntity
  8
0
100
AcDbBlockEnd
  0
BLOCK
  5
B2
330
B1
100
AcDbEntity
  8
0
100
AcDbBlockBegin
  2
path30
 70
    0
 10
0
 20
0
  3
path30
  1

  0
LINE
  5
165
100
AcDbEntity
  8
0
  6
ByLayer
 62
    3
370
   -1
100
AcDbLine
 10
-4.060342230950919
 20
-3.01816686171518
 11
-4.520342230950919
 21
-3.47816686171518
  0
LINE
  5
166
100
AcDbEntity
  8
0
  6
ByLayer
 62
    1
370
   -1
100
AcDbLine
 10
-4.520342230950919
 20
-3.47816686171518
 11
-4.308210196594953
 21
-3.266034827359216
  0
ENDBLK
  5
B3
330
B1
100
AcDbEntity
  8
0
100
AcDbBlockEnd
  0
BLOCK
  5
B5
330
B4
100
AcDbEntity
  8
0
100
AcDbBlockBegin
  2
path31
 70
    0
 10
0
 20
0
  3
path31
  1

  0
LINE
  5
167
100
AcDbEntity
  8
0
  6
ByLayer
 62
    3
370
   -1
100
AcDbLine
 10
-4.060342230950919
 20
-3.93816686171518
 11
-4.520342230950919
 21
-3.47816686171518
  0
LINE
  5
168
100
AcDbEntity
  8
0
  6
ByLayer
 62
    1
370
   -1
100
AcDbLine
 10
-4.060342230950919
 20
-3.93816686171518
 11
-3.848210196594953
 21
-3.726034827359216
  0
ENDBLK
  5
B6
330
B4
100
AcDbEntity
  8
0
100
AcDbBlockEnd
  0
BLOCK
  5
B8
330
B7
100
AcDbEntity
  8
0
100
AcDbBlockBegin
  2
path32
 70
    0
 10
0
 20
0
  3
path32
  1

  0
LINE
  5
169
100
AcDbEntity
  8
0
  6
ByLayer
 62
    3
370
   -1
100
AcDbLine
 10
-4.060342230950919
 20
-3.93816686171518
 11
-3.600342230950918
 21
-3.47816686171518
  0
LINE
  5
16A
100
AcDbEntity
  8
0
  6
ByLayer
 62
    1
370
   -1
100
AcDbLine
 10
-3.600342230950918
 20
-3.47816686171518
 11
-3.670720826916181
 21
-3.706485742243216
  0
ENDBLK
  5
B9
330
B7
100
AcDbEntity
  8
0
100
AcDbBlockEnd
  0
BLOCK
  5
BB
330
BA
100
AcDbEntity
  8
0
100
AcDbBlockBegin
  2
path33
 70
    0
 10
0
 20
0
  3
path33
  1

  0
LINE
  5
16B
100
AcDbEntity
  8
0
  6
ByLayer
 62
    3
370
   -1
100
AcDbLine
 10
-1.337287371870843
 20
-2.504510696173348
 11
-1.337287371870843
 21
-3.01816686171518
  0
LINE
  5
16C
100
AcDbEntity
  8
0
  6
ByLayer
 62
    1
370
   -1
100
AcDbLine
 10
-1.337287371870843
 20
-2.504510696173348
 11
-1.125155337514877
 21
-2.292378661817383
  0
ENDBLK
  5
BC
330
BA
100
AcDbEntity
  8
0
100
AcDbBlockEnd
  0
BLOCK
  5
BE
330
BD
100
AcDbEntity
  8
0
100
AcDbBlockBegin
  2
path34
 70
    0
 10
0
 20
0
  3
path34
  1

  0
LINE
  5
16D
100
AcDbEntity
  8
0
  6
ByLayer
 62
    3
370
   -1
100
AcDbLine
 10
-1.337287371870843
 20
-2.504510696173348
 11
-1.337287371870843
 21
-1.584510696173345
  0
LINE
  5
16E
100
AcDbEntity
  8
0
  6
ByLayer
 62
    1
370
   -1
100
AcDbLine
 10
-1.337287371870843
 20
-1.584510696173345
 11
-1.125155337514877
 21
-1.372378661817381
  0
ENDBLK
  5
BF
330
BD
100
AcDbEntity
  8
0
100
AcDbBlockEnd
  0
BLOCK
  5
C1
330
C0
100
AcDbEntity
  8
0
100
AcDbBlockBegin
  2
path35
 70
    0
 10
0
 20
0
  3
path35
  1

  0
LINE
  5
16F
100
AcDbEntity
  8
0
  6
ByLayer
 62
    3
370
   -1
100
AcDbLine
 10
-1.797287371870842
 20
-2.044510696173346
 11
-4.520342230950918
 21
-2.044510696173346
  0
LINE
  5
170
100
AcDbEntity
  8
0
  6
ByLayer
 62
    1
370
   -1
100
AcDbLine
 10
-1.797287371870842
 20
-2.044510696173346
 11
-1.585155337514878
 21
-1.832378661817383
  0
ENDBLK
  5
C2
330
C0
100
AcDbEntity
  8
0
100
AcDbBlockEnd
  0
BLOCK
  5
C4
330
C3
100
AcDbEntity
  8
0
100
AcDbBlockBegin
  2
path36
 70
    0
 10
0
 20
0
  3
path36
  1

  0
LINE
  5
171
100
AcDbEntity
  8
0
  6
ByLayer
 62
    3
370
   -1
100
AcDbLine
 10
-1.337287371870843
 20
-1.584510696173345
 11
-1.797287371870842
 21
-2.044510696173346
  0
LINE
  5
172
100
AcDbEntity
  8
0
  6
ByLayer
 62
    1
370
   -1
100
AcDbLine
 10
-1.337287371870843
 20
-1.584510696173345
 11
-1.615386446585375
 21
-1.684655494233027
  0
ENDBLK
  5
C5
330
C3
100
AcDbEntity
  8
0
100
AcDbBlockEnd
  0
BLOCK
  5
C7
330
C6
100
AcDbEntity
  8
0
100
AcDbBlockBegin
  2
path37
 70
    0
 10
0
 20
0
  3
path37
  1

  0
LINE
  5
173
100
AcDbEntity
  8
0
  6
ByLayer
 62
    1
370
   -1
100
AcDbLine
 10
-0.266772363719574
 20
1.418596421525215
 11
-0.0546403293636093
 21
1.630728455881178
  0
LINE
  5
174
100
AcDbEntity
  8
0
  6
ByLayer
 62
    3
370
   -1
100
AcDbLine
 10
-0.2667723637195729
 20
1.418596421525215
 11
0.6532276362804269
 21
1.418596421525215
  0
ENDBLK
  5
C8
330
C6
100
AcDbEntity
  8
0
100
AcDbBlockEnd
  0
BLOCK
  5
CA
330
C9
100
AcDbEntity
  8
0
100
AcDbBlockBegin
  2
path38
 70
    0
 10
0
 20
0
  3
path38
  1

  0
LINE
  5
175
100
AcDbEntity
  8
0
  6
ByLayer
 62
    3
370
   -1
100
AcDbLine
 10
0.1932276362804259
 20
0.9585964215252156
 11
-0.2667723637195745
 21
1.418596421525215
  0
LINE
  5
176
100
AcDbEntity
  8
0
  6
ByLayer
 62
    1
370
   -1
100
AcDbLine
 10
0.1932276362804259
 20
0.9585964215252156
 11
0.4053596706363908
 21
1.170728455881179
  0
ENDBLK
  5
CB
330
C9
100
AcDbEntity
  8
0
100
AcDbBlockEnd
  0
BLOCK
  5
CD
330
CC
100
AcDbEntity
  8
0
100
AcDbBlockBegin
  2
path39
 70
    0
 10
0
 20
0
  3
path39
  1

  0
LINE
  5
177
100
AcDbEntity
  8
0
  6
ByLayer
 62
    3
370
   -1
100
AcDbLine
 10
0.1932276362804259
 20
0.9585964215252156
 11
0.6532276362804263
 21
1.418596421525215
  0
LINE
  5
178
100
AcDbEntity
  8
0
  6
ByLayer
 62
    1
370
   -1
100
AcDbLine
 10
0.1932276362804259
 20
0.9585964215252156
 11
0.5328569100544202
 21
1.130902263402731
  0
ENDBLK
  5
CE
330
CC
100
AcDbEntity
  8
0
100
AcDbBlockEnd
  0
BLOCK
  5
D0
330
CF
100
AcDbEntity
  8
0
100
AcDbBlockBegin
  2
path40
 70
    0
 10
0
 20
0
  3
path40
  1

  0
LINE
  5
179
100
AcDbEntity
  8
0
  6
ByLayer
 62
    1
370
   -1
100
AcDbLine
 10
0.6532276362804259
 20
1.418596421525215
 11
0.8653596706363906
 21
1.630728455881178
  0
LINE
  5
17A
100
AcDbEntity
  8
0
  6
ByLayer
 62
    3
370
   -1
100
AcDbLine
 10
0.6532276362804269
 20
1.418596421525215
 11
1.478094727424164
 21
1.418596421525215
  0
ENDBLK
  5
D1
330
CF
100
AcDbEntity
  8
0
100
AcDbBlockEnd
  0
BLOCK
  5
D3
330
D2
100
AcDbEntity
  8
0
100
AcDbBlockBegin
  2
path41
 70
    0
 10
0
 20
0
  3
path41
  1

  0
LINE
  5
17B
100
AcDbEntity
  8
0
  6
ByLayer
 62
    1
370
   -1
100
AcDbLine
 10
1.478094727424164
 20
1.418596421525215
 11
1.690226761780129
 21
1.630728455881178
  0
LINE
  5
17C
100
AcDbEntity
  8
0
  6
ByLayer
 62
    3
370
   -1
100
AcDbLine
 10
1.478094727424164
 20
1.418596421525215
 11
2.398094727424165
 21
1.418596421525215
  0
ENDBLK
  5
D4
330
D2
100
AcDbEntity
  8
0
100
AcDbBlockEnd
  0
BLOCK
  5
D6
330
D5
100
AcDbEntity
  8
0
100
AcDbBlockBegin
  2
path43
 70
    0
 10
0
 20
0
  3
path43
  1

  0
LINE
  5
17D
100
AcDbEntity
  8
0
  6
ByLayer
 62
    1
370
   -1
100
AcDbLine
 10
2.398094727424165
 20
1.418596421525215
 11
2.61022676178013
 21
1.630728455881178
  0
LINE
  5
17E
100
AcDbEntity
  8
0
  6
ByLayer
 62
    3
370
   -1
100
AcDbLine
 10
2.398094727424165
 20
1.418596421525215
 11
3.404629261543452
 21
1.418596421525214
  0
ENDBLK
  5
D7
330
D5
100
AcDbEntity
  8
0
100
AcDbBlockEnd
  0
BLOCK
  5
D9
330
D8
100
AcDbEntity
  8
0
100
AcDbBlockBegin
  2
path44
 70
    0
 10
0
 20
0
  3
path44
  1

  0
LINE
  5
17F
100
AcDbEntity
  8
0
  6
ByLayer
 62
    1
370
   -1
100
AcDbLine
 10
3.404629261543453
 20
1.418596421525215
 11
3.616761295899418
 21
1.630728455881178
  0
LINE
  5
180
100
AcDbEntity
  8
0
  6
ByLayer
 62
    3
370
   -1
100
AcDbLine
 10
3.404629261543452
 20
1.418596421525214
 11
3.864629261543448
 21
0.9585964215252156
  0
ENDBLK
  5
DA
330
D8
100
AcDbEntity
  8
0
100
AcDbBlockEnd
  0
BLOCK
  5
DC
330
DB
100
AcDbEntity
  8
0
100
AcDbBlockBegin
  2
path45
 70
    0
 10
0
 20
0
  3
path45
  1

  0
LINE
  5
181
100
AcDbEntity
  8
0
  6
ByLayer
 62
    1
370
   -1
100
AcDbLine
 10
3.864629261543448
 20
0.9585964215252156
 11
4.076761295899413
 21
1.170728455881179
  0
LINE
  5
182
100
AcDbEntity
  8
0
  6
ByLayer
 62
    3
370
   -1
100
AcDbLine
 10
3.864629261543448
 20
0.9585964215252156
 11
3.864629261543448
 21
-5.047617813871916
  0
ENDBLK
  5
DD
330
DB
100
AcDbEntity
  8
0
100
AcDbBlockEnd
  0
BLOCK
  5
DF
330
DE
100
AcDbEntity
  8
0
100
AcDbBlockBegin
  2
path46
 70
    0
 10
0
 20
0
  3
path46
  1

  0
LINE
  5
183
100
AcDbEntity
  8
0
  6
ByLayer
 62
    1
370
   -1
100
AcDbLine
 10
3.864629261543448
 20
-5.04761781387191
 11
4.076761295899411
 21
-4.835485779515947
  0
LINE
  5
184
100
AcDbEntity
  8
0
  6
ByLayer
 62
    3
370
   -1
100
AcDbLine
 10
3.404629261543448
 20
-5.50761781387191
 11
3.864629261543448
 21
-5.047617813871916
  0
ENDBLK
  5
E0
330
DE
100
AcDbEntity
  8
0
100
AcDbBlockEnd
  0
BLOCK
  5
E2
330
E1
100
AcDbEntity
  8
0
100
AcDbBlockBegin
  2
path47
 70
    0
 10
0
 20
0
  3
path47
  1

  0
LINE
  5
185
100
AcDbEntity
  8
0
  6
ByLayer
 62
    3
370
   -1
100
AcDbLine
 10
0.1932276362804259
 20
-5.04761781387191
 11
-0.2667723637195745
 21
-5.50761781387191
  0
LINE
  5
186
100
AcDbEntity
  8
0
  6
ByLayer
 62
    1
370
   -1
100
AcDbLine
 10
-0.266772363719574
 20
-5.50761781387191
 11
-0.0546403293636093
 21
-5.295485779515948
  0
ENDBLK
  5
E3
330
E1
100
AcDbEntity
  8
0
100
AcDbBlockEnd
  0
BLOCK
  5
E5
330
E4
100
AcDbEntity
  8
0
100
AcDbBlockBegin
  2
path48
 70
    0
 10
0
 20
0
  3
path48
  1

  0
LINE
  5
187
100
AcDbEntity
  8
0
  6
ByLayer
 62
    3
370
   -1
100
AcDbLine
 10
0.1932276362804259
 20
-5.04761781387191
 11
0.6532276362804263
 21
-5.50761781387191
  0
LINE
  5
188
100
AcDbEntity
  8
0
  6
ByLayer
 62
    1
370
   -1
100
AcDbLine
 10
0.6532276362804259
 20
-5.50761781387191
 11
0.8653596706363906
 21
-5.295485779515948
  0
ENDBLK
  5
E6
330
E4
100
AcDbEntity
  8
0
100
AcDbBlockEnd
  0
BLOCK
  5
E8
330
E7
100
AcDbEntity
  8
0
100
AcDbBlockBegin
  2
path49
 70
    0
 10
0
 20
0
  3
path49
  1

  0
LINE
  5
189
100
AcDbEntity
  8
0
  6
ByLayer
 62
    3
370
   -1
100
AcDbLine
 10
0.6532276362804263
 20
-5.50761781387191
 11
-0.2667723637195735
 21
-5.50761781387191
  0
LINE
  5
18A
100
AcDbEntity
  8
0
  6
ByLayer
 62
    1
370
   -1
100
AcDbLine
 10
0.6532276362804263
 20
-5.50761781387191
 11
0.3651401497098732
 21
-5.620038474215277
  0
ENDBLK
  5
E9
330
E7
100
AcDbEntity
  8
0
100
AcDbBlockEnd
  0
BLOCK
  5
EB
330
EA
100
AcDbEntity
  8
0
100
AcDbBlockBegin
  2
path50
 70
    0
 10
0
 20
0
  3
path50
  1

  0
LINE
  5
18B
100
AcDbEntity
  8
0
  6
ByLayer
 62
    3
370
   -1
100
AcDbLine
 10
1.492142007271555
 20
-2.044510696173348
 11
0.6532276362804267
 21
-2.044510696173348
  0
LINE
  5
18C
100
AcDbEntity
  8
0
  6
ByLayer
 62
    1
370
   -1
100
AcDbLine
 10
0.6532276362804268
 20
-2.044510696173348
 11
0.8653596706363915
 21
-1.832378661817383
  0
LINE
  5
18D
100
AcDbEntity
  8
0
  6
ByLayer
 62
    1
370
   -1
100
AcDbLine
 10
1.492142007271557
 20
-2.044510696173348
 11
1.222266118249194
 21
-1.901223474149048
  0
ENDBLK
  5
EC
330
EA
100
AcDbEntity
  8
0
100
AcDbBlockEnd
  0
BLOCK
  5
EE
330
ED
100
AcDbEntity
  8
0
100
AcDbBlockBegin
  2
path51
 70
    0
 10
0
 20
0
  3
path51
  1

  0
LINE
  5
18E
100
AcDbEntity
  8
0
  6
ByLayer
 62
    3
370
   -1
100
AcDbLine
 10
0.1932276362804259
 20
0.9585964215252156
 11
0.1932276362804259
 21
-1.584510696173345
  0
LINE
  5
18F
100
AcDbEntity
  8
0
  6
ByLayer
 62
    1
370
   -1
100
AcDbLine
 10
0.1932276362804259
 20
-1.584510696173345
 11
0.4053596706363908
 21
-1.372378661817381
  0
ENDBLK
  5
EF
330
ED
100
AcDbEntity
  8
0
100
AcDbBlockEnd
  0
BLOCK
  5
F1
330
F0
100
AcDbEntity
  8
0
100
AcDbBlockBegin
  2
path52
 70
    0
 10
0
 20
0
  3
path52
  1

  0
LINE
  5
190
100
AcDbEntity
  8
0
  6
ByLayer
 62
    3
370
   -1
100
AcDbLine
 10
0.1932276362804259
 20
-1.584510696173345
 11
0.6532276362804259
 21
-2.044510696173346
  0
LINE
  5
191
100
AcDbEntity
  8
0
  6
ByLayer
 62
    1
370
   -1
100
AcDbLine
 10
0.6532276362804259
 20
-2.044510696173346
 11
0.5500230477657624
 21
-1.814821268748062
  0
ENDBLK
  5
F2
330
F0
100
AcDbEntity
  8
0
100
AcDbBlockEnd
  0
BLOCK
  5
F4
330
F3
100
AcDbEntity
  8
0
100
AcDbBlockBegin
  2
path53
 70
    0
 10
0
 20
0
  3
path53
  1

  0
LINE
  5
192
100
AcDbEntity
  8
0
  6
ByLayer
 62
    3
370
   -1
100
AcDbLine
 10
0.1932276362804259
 20
-2.504510696173348
 11
0.6532276362804259
 21
-2.044510696173346
  0
LINE
  5
193
100
AcDbEntity
  8
0
  6
ByLayer
 62
    1
370
   -1
100
AcDbLine
 10
0.1932276362804259
 20
-2.504510696173348
 11
0.4053596706363908
 21
-2.292378661817383
  0
ENDBLK
  5
F5
330
F3
100
AcDbEntity
  8
0
100
AcDbBlockEnd
  0
BLOCK
  5
F7
330
F6
100
AcDbEntity
  8
0
100
AcDbBlockBegin
  2
path54
 70
    0
 10
0
 20
0
  3
path54
  1

  0
LINE
  5
194
100
AcDbEntity
  8
0
  6
ByLayer
 62
    3
370
   -1
100
AcDbLine
 10
0.1932276362804259
 20
-1.584510696173345
 11
0.1932276362804259
 21
-2.504510696173346
  0
LINE
  5
195
100
AcDbEntity
  8
0
  6
ByLayer
 62
    1
370
   -1
100
AcDbLine
 10
0.1932276362804259
 20
-2.504510696173346
 11
0.0512131955951532
 21
-2.283018014708659
  0
ENDBLK
  5
F8
330
F6
100
AcDbEntity
  8
0
100
AcDbBlockEnd
  0
BLOCK
  5
FA
330
F9
100
AcDbEntity
  8
0
100
AcDbBlockBegin
  2
path55
 70
    0
 10
0
 20
0
  3
path55
  1

  0
LINE
  5
196
100
AcDbEntity
  8
0
  6
ByLayer
 62
    3
370
   -1
100
AcDbLine
 10
1.952142007271556
 20
-2.504510696173348
 11
1.492142007271555
 21
-2.044510696173346
  0
LINE
  5
197
100
AcDbEntity
  8
0
  6
ByLayer
 62
    1
370
   -1
100
AcDbLine
 10
1.492142007271555
 20
-2.044510696173346
 11
1.704274041627519
 21
-1.832378661817383
  0
ENDBLK
  5
FB
330
F9
100
AcDbEntity
  8
0
100
AcDbBlockEnd
  0
BLOCK
  5
FD
330
FC
100
AcDbEntity
  8
0
100
AcDbBlockBegin
  2
path56
 70
    0
 10
0
 20
0
  3
path56
  1

  0
LINE
  5
198
100
AcDbEntity
  8
0
  6
ByLayer
 62
    3
370
   -1
100
AcDbLine
 10
1.952142007271556
 20
-2.504510696173348
 11
1.964330943200033
 21
-5.049476157790823
  0
LINE
  5
199
100
AcDbEntity
  8
0
  6
ByLayer
 62
    1
370
   -1
100
AcDbLine
 10
1.952142007271556
 20
-2.504510696173348
 11
2.164274041627519
 21
-2.292378661817383
  0
ENDBLK
  5
FE
330
FC
100
AcDbEntity
  8
0
100
AcDbBlockEnd
  0
BLOCK
  5
100
330
FF
100
AcDbEntity
  8
0
100
AcDbBlockBegin
  2
path57
 70
    0
 10
0
 20
0
  3
path57
  1

  0
LINE
  5
19A
100
AcDbEntity
  8
0
  6
ByLayer
 62
    3
370
   -1
100
AcDbLine
 10
1.939953071343077
 20
0.9604547654441278
 11
1.950283663352642
 21
-1.586369040092258
  0
LINE
  5
19B
100
AcDbEntity
  8
0
  6
ByLayer
 62
    1
370
   -1
100
AcDbLine
 10
1.950283663352642
 20
-1.586369040092258
 11
2.162415697708608
 21
-1.374237005736294
  0
ENDBLK
  5
101
330
FF
100
AcDbEntity
  8
0
100
AcDbBlockEnd
  0
BLOCK
  5
103
330
102
100
AcDbEntity
  8
0
100
AcDbBlockBegin
  2
path60
 70
    0
 10
0
 20
0
  3
path60
  1

  0
LINE
  5
19C
100
AcDbEntity
  8
0
  6
ByLayer
 62
    3
370
   -1
100
AcDbLine
 10
1.952142007271556
 20
-1.584510696173345
 11
1.492142007271555
 21
-2.044510696173346
  0
LINE
  5
19D
100
AcDbEntity
  8
0
  6
ByLayer
 62
    1
370
   -1
100
AcDbLine
 10
1.492142007271555
 20
-2.044510696173346
 11
1.704274041627519
 21
-1.832378661817383
  0
ENDBLK
  5
104
330
102
100
AcDbEntity
  8
0
100
AcDbBlockEnd
  0
BLOCK
  5
106
330
105
100
AcDbEntity
  8
0
100
AcDbBlockBegin
  2
path61
 70
    0
 10
0
 20
0
  3
path61
  1

  0
LINE
  5
19E
100
AcDbEntity
  8
0
  6
ByLayer
 62
    3
370
   -1
100
AcDbLine
 10
1.952142007271556
 20
-2.504510696173348
 11
1.492142007271555
 21
-2.044510696173346
  0
LINE
  5
19F
100
AcDbEntity
  8
0
  6
ByLayer
 62
    1
370
   -1
100
AcDbLine
 10
1.952142007271556
 20
-2.504510696173348
 11
1.700727969129331
 21
-2.422552180581988
  0
ENDBLK
  5
107
330
105
100
AcDbEntity
  8
0
100
AcDbBlockEnd
  0
BLOCK
  5
109
330
108
100
AcDbEntity
  8
0
100
AcDbBlockBegin
  2
path62
 70
    0
 10
0
 20
0
  3
path62
  1

  0
LINE
  5
1A0
100
AcDbEntity
  8
0
  6
ByLayer
 62
    3
370
   -1
100
AcDbLine
 10
1.952142007271556
 20
-2.504510696173348
 11
1.950283663352642
 21
-1.586369040092258
  0
LINE
  5
1A1
100
AcDbEntity
  8
0
  6
ByLayer
 62
    1
370
   -1
100
AcDbLine
 10
1.952142007271556
 20
-2.504510696173348
 11
2.164274041627519
 21
-2.292378661817383
  0
ENDBLK
  5
10A
330
108
100
AcDbEntity
  8
0
100
AcDbBlockEnd
  0
BLOCK
  5
10C
330
10B
100
AcDbEntity
  8
0
100
AcDbBlockBegin
  2
path63
 70
    0
 10
0
 20
0
  3
path63
  1

  0
LINE
  5
1A2
100
AcDbEntity
  8
0
  6
ByLayer
 62
    1
370
   -1
100
AcDbLine
 10
1.964330943200033
 20
-5.049476157790824
 11
2.168162680138538
 21
-4.845644420852318
  0
LINE
  5
1A3
100
AcDbEntity
  8
0
  6
ByLayer
 62
    3
370
   -1
100
AcDbLine
 10
1.952142007271556
 20
-2.504510696173348
 11
1.964330943200033
 21
-5.049476157790823
  0
ENDBLK
  5
10D
330
10B
100
AcDbEntity
  8
0
100
AcDbBlockEnd
  0
BLOCK
  5
10F
330
10E
100
AcDbEntity
  8
0
100
AcDbBlockBegin
  2
path64
 70
    0
 10
0
 20
0
  3
path64
  1

  0
LINE
  5
1A4
100
AcDbEntity
  8
0
  6
ByLayer
 62
    3
370
   -1
100
AcDbLine
 10
1.966189287118945
 20
-5.04761781387191
 11
2.426189287118944
 21
-5.50761781387191
  0
LINE
  5
1A5
100
AcDbEntity
  8
0
  6
ByLayer
 62
    1
370
   -1
100
AcDbLine
 10
2.426189287118944
 20
-5.50761781387191
 11
2.63832132147491
 21
-5.295485779515948
  0
ENDBLK
  5
110
330
10E
100
AcDbEntity
  8
0
100
AcDbBlockEnd
  0
BLOCK
  5
112
330
111
100
AcDbEntity
  8
0
100
AcDbBlockBegin
  2
path65
 70
    0
 10
0
 20
0
  3
path65
  1

  0
LINE
  5
1A6
100
AcDbEntity
  8
0
  6
ByLayer
 62
    3
370
   -1
100
AcDbLine
 10
2.426189287118944
 20
-5.50761781387191
 11
3.404629261543448
 21
-5.50761781387191
  0
LINE
  5
1A7
100
AcDbEntity
  8
0
  6
ByLayer
 62
    1
370
   -1
100
AcDbLine
 10
3.404629261543448
 20
-5.50761781387191
 11
3.151300133346865
 21
-5.643901071607956
  0
ENDBLK
  5
113
330
111
100
AcDbEntity
  8
0
100
AcDbBlockEnd
  0
BLOCK
  5
115
330
114
100
AcDbEntity
  8
0
100
AcDbBlockBegin
  2
path66
 70
    0
 10
0
 20
0
  3
path66
  1

  0
LINE
  5
1A8
100
AcDbEntity
  8
0
  6
ByLayer
 62
    3
370
   -1
100
AcDbLine
 10
1.939953071343077
 20
0.9604547654441278
 11
2.398094727424165
 21
1.418596421525215
  0
LINE
  5
1A9
100
AcDbEntity
  8
0
  6
ByLayer
 62
    1
370
   -1
100
AcDbLine
 10
1.939953071343077
 20
0.9604547654441278
 11
2.152085105699041
 21
1.17258679980009
  0
ENDBLK
  5
116
330
114
100
AcDbEntity
  8
0
100
AcDbBlockEnd
  0
BLOCK
  5
118
330
117
100
AcDbEntity
  8
0
100
AcDbBlockBegin
  2
path67
 70
    0
 10
0
 20
0
  3
path67
  1

  0
LINE
  5
1AA
100
AcDbEntity
  8
0
  6
ByLayer
 62
    3
370
   -1
100
AcDbLine
 10
3.404629261543448
 20
-5.50761781387191
 11
3.864629261543448
 21
-5.047617813871916
  0
LINE
  5
1AB
100
AcDbEntity
  8
0
  6
ByLayer
 62
    1
370
   -1
100
AcDbLine
 10
3.864629261543448
 20
-5.047617813871916
 11
3.807679986402092
 21
-5.219951458946241
  0
ENDBLK
  5
119
330
117
100
AcDbEntity
  8
0
100
AcDbBlockEnd
  0
BLOCK
  5
11B
330
11A
100
AcDbEntity
  8
0
100
AcDbBlockBegin
  2
path70
 70
    0
 10
0
 20
0
  3
path70
  1

  0
LINE
  5
1AC
100
AcDbEntity
  8
0
  6
ByLayer
 62
    3
370
   -1
100
AcDbLine
 10
0.1932276362804259
 20
-2.504510696173346
 11
0.1932276362804259
 21
-5.04761781387191
  0
LINE
  5
1AD
100
AcDbEntity
  8
0
  6
ByLayer
 62
    1
370
   -1
100
AcDbLine
 10
0.1932276362804259
 20
-5.04761781387191
 11
0.4053596706363908
 21
-4.835485779515947
  0
ENDBLK
  5
11C
330
11A
100
AcDbEntity
  8
0
100
AcDbBlockEnd
  0
BLOCK
  5
11E
330
11D
100
AcDbEntity
  8
0
100
AcDbBlockBegin
  2
path71
 70
    0
 10
0
 20
0
  3
path71
  1

  0
LINE
  5
1AE
100
AcDbEntity
  8
0
  6
ByLayer
 62
    3
370
   -1
100
AcDbLine
 10
0.6532276362804263
 20
-5.50761781387191
 11
2.426189287118944
 21
-5.50761781387191
  0
LINE
  5
1AF
100
AcDbEntity
  8
0
  6
ByLayer
 62
    1
370
   -1
100
AcDbLine
 10
2.426189287118944
 20
-5.50761781387191
 11
2.235224239747253
 21
-5.588801850386857
  0
ENDBLK
  5
11F
330
11D
100
AcDbEntity
  8
0
100
AcDbBlockEnd
  0
ENDSEC
  0
SECTION
  2
ENTITIES
  0
IMAGE
  5
1B2
100
AcDbEntity
  8
obrazok
  6
ByLayer
 62
  256
370
   -1
100
AcDbRasterImage
 10
-100
 20
-100
 30
0
 11
0.05
 21
0
 31
0
 12
0
 22
0.05
 32
0
 13
4000
 23
4000
340
1B0
 70
    1
280
    0
281
   50
282
   50
283
    0
360
1B1
  0
LINE
  5
1B3
100
AcDbEntity
  8
obrazok
  6
ByLayer
 62
  256
370
   -1
100
AcDbLine
 10
-100
 20
-100
 11
100
 21
-100
  0
INSERT
  5
1B4
100
AcDbEntity
  8
0
  6
ByLayer
 62
    3
370
   -1
100
AcDbBlockReference
  2
path0
 10
0
 20
0
 30
0
 41
1
 42
1
 43
0
 50
0
 70
    1
 71
    1
 44
0
 45
0
  0
INSERT
  5
1B5
100
AcDbEntity
  8
0
  6
ByLayer
 62
    3
370
   -1
100
AcDbBlockReference
  2
path_1
 10
0
 20
0
 30
0
 41
1
 42
1
 43
0
 50
0
 70
    1
 71
    1
 44
0
 45
0
  0
INSERT
  5
1B6
100
AcDbEntity
  8
0
  6
ByLayer
 62
    3
370
   -1
100
AcDbBlockReference
  2
path10
 10
-4.980342230950919
 20
-0.7729565120069563
 30
0
 41
1
 42
1
 43
0
 50
0
 70
    1
 71
    1
 44
0
 45
0
  0
INSERT
  5
1B7
100
AcDbEntity
  8
0
  6
ByLayer
 62
    3
370
   -1
100
AcDbBlockReference
  2
path2
 10
0
 20
0
 30
0
 41
1
 42
1
 43
0
 50
0
 70
    1
 71
    1
 44
0
 45
0
  0
INSERT
  5
1B8
100
AcDbEntity
  8
0
  6
ByLayer
 62
    3
370
   -1
100
AcDbBlockReference
  2
path3
 10
0
 20
0
 30
0
 41
1
 42
1
 43
0
 50
0
 70
    1
 71
    1
 44
0
 45
0
  0
INSERT
  5
1B9
100
AcDbEntity
  8
0
  6
ByLayer
 62
    1
370
   -1
100
AcDbBlockReference
  2
path4
 10
0
 20
0
 30
0
 41
1
 42
1
 43
0
 50
0
 70
    1
 71
    1
 44
0
 45
0
  0
INSERT
  5
1BA
100
AcDbEntity
  8
0
  6
ByLayer
 62
    3
370
   -1
100
AcDbBlockReference
  2
path5
 10
0
 20
0
 30
0
 41
1
 42
1
 43
0
 50
0
 70
    1
 71
    1
 44
0
 45
0
  0
INSERT
  5
1BB
100
AcDbEntity
  8
0
  6
ByLayer
 62
    3
370
   -1
100
AcDbBlockReference
  2
path6
 10
0
 20
0
 30
0
 41
1
 42
1
 43
0
 50
0
 70
    1
 71
    1
 44
0
 45
0
  0
INSERT
  5
1BC
100
AcDbEntity
  8
0
  6
ByLayer
 62
    1
370
   -1
100
AcDbBlockReference
  2
path7
 10
0
 20
0
 30
0
 41
1
 42
1
 43
0
 50
0
 70
    1
 71
    1
 44
0
 45
0
  0
INSERT
  5
1BD
100
AcDbEntity
  8
0
  6
ByLayer
 62
    1
370
   -1
100
AcDbBlockReference
  2
path8
 10
0
 20
0
 30
0
 41
1
 42
1
 43
0
 50
0
 70
    1
 71
    1
 44
0
 45
0
  0
INSERT
  5
1BE
100
AcDbEntity
  8
0
  6
ByLayer
 62
    1
370
   -1
100
AcDbBlockReference
  2
path9
 10
0
 20
0
 30
0
 41
1
 42
1
 43
0
 50
0
 70
    1
 71
    1
 44
0
 45
0
  0
INSERT
  5
1BF
100
AcDbEntity
  8
0
  6
ByLayer
 62
    1
370
   -1
100
AcDbBlockReference
  2
path11
 10
0
 20
0
 30
0
 41
1
 42
1
 43
0
 50
0
 70
    1
 71
    1
 44
0
 45
0
  0
INSERT
  5
1C0
100
AcDbEntity
  8
0
  6
ByLayer
 62
    1
370
   -1
100
AcDbBlockReference
  2
path12
 10
0
 20
0
 30
0
 41
1
 42
1
 43
0
 50
0
 70
    1
 71
    1
 44
0
 45
0
  0
INSERT
  5
1C1
100
AcDbEntity
  8
0
  6
ByLayer
 62
    1
370
   -1
100
AcDbBlockReference
  2
path13
 10
0
 20
0
 30
0
 41
1
 42
1
 43
0
 50
0
 70
    1
 71
    1
 44
0
 45
0
  0
INSERT
  5
1C2
100
AcDbEntity
  8
0
  6
ByLayer
 62
    1
370
   -1
100
AcDbBlockReference
  2
path15
 10
0
 20
0
 30
0
 41
1
 42
1
 43
0
 50
0
 70
    1
 71
    1
 44
0
 45
0
  0
INSERT
  5
1C3
100
AcDbEntity
  8
0
  6
ByLayer
 62
    1
370
   -1
100
AcDbBlockReference
  2
path16
 10
0
 20
0
 30
0
 41
1
 42
1
 43
0
 50
0
 70
    1
 71
    1
 44
0
 45
0
  0
INSERT
  5
1C4
100
AcDbEntity
  8
0
  6
ByLayer
 62
    1
370
   -1
100
AcDbBlockReference
  2
path17
 10
0
 20
0
 30
0
 41
1
 42
1
 43
0
 50
0
 70
    1
 71
    1
 44
0
 45
0
  0
INSERT
  5
1C5
100
AcDbEntity
  8
0
  6
ByLayer
 62
    1
370
   -1
100
AcDbBlockReference
  2
path18
 10
0
 20
0
 30
0
 41
1
 42
1
 43
0
 50
0
 70
    1
 71
    1
 44
0
 45
0
  0
INSERT
  5
1C6
100
AcDbEntity
  8
0
  6
ByLayer
 62
    1
370
   -1
100
AcDbBlockReference
  2
path20
 10
0
 20
0
 30
0
 41
1
 42
1
 43
0
 50
0
 70
    1
 71
    1
 44
0
 45
0
  0
INSERT
  5
1C7
100
AcDbEntity
  8
0
  6
ByLayer
 62
    1
370
   -1
100
AcDbBlockReference
  2
path21
 10
0
 20
0
 30
0
 41
1
 42
1
 43
0
 50
0
 70
    1
 71
    1
 44
0
 45
0
  0
INSERT
  5
1C8
100
AcDbEntity
  8
0
  6
ByLayer
 62
    1
370
   -1
100
AcDbBlockReference
  2
path22
 10
0
 20
0
 30
0
 41
1
 42
1
 43
0
 50
0
 70
    1
 71
    1
 44
0
 45
0
  0
INSERT
  5
1C9
100
AcDbEntity
  8
0
  6
ByLayer
 62
    1
370
   -1
100
AcDbBlockReference
  2
path23
 10
0
 20
0
 30
0
 41
1
 42
1
 43
0
 50
0
 70
    1
 71
    1
 44
0
 45
0
  0
INSERT
  5
1CA
100
AcDbEntity
  8
0
  6
ByLayer
 62
    1
370
   -1
100
AcDbBlockReference
  2
path24
 10
0
 20
0
 30
0
 41
1
 42
1
 43
0
 50
0
 70
    1
 71
    1
 44
0
 45
0
  0
INSERT
  5
1CB
100
AcDbEntity
  8
0
  6
ByLayer
 62
    1
370
   -1
100
AcDbBlockReference
  2
path25
 10
0
 20
0
 30
0
 41
1
 42
1
 43
0
 50
0
 70
    1
 71
    1
 44
0
 45
0
  0
INSERT
  5
1CC
100
AcDbEntity
  8
0
  6
ByLayer
 62
    1
370
   -1
100
AcDbBlockReference
  2
path26
 10
0
 20
0
 30
0
 41
1
 42
1
 43
0
 50
0
 70
    1
 71
    1
 44
0
 45
0
  0
INSERT
  5
1CD
100
AcDbEntity
  8
0
  6
ByLayer
 62
    1
370
   -1
100
AcDbBlockReference
  2
path27
 10
0
 20
0
 30
0
 41
1
 42
1
 43
0
 50
0
 70
    1
 71
    1
 44
0
 45
0
  0
INSERT
  5
1CE
100
AcDbEntity
  8
0
  6
ByLayer
 62
    1
370
   -1
100
AcDbBlockReference
  2
path28
 10
0
 20
0
 30
0
 41
1
 42
1
 43
0
 50
0
 70
    1
 71
    1
 44
0
 45
0
  0
INSERT
  5
1CF
100
AcDbEntity
  8
0
  6
ByLayer
 62
    1
370
   -1
100
AcDbBlockReference
  2
path29
 10
0
 20
0
 30
0
 41
1
 42
1
 43
0
 50
0
 70
    1
 71
    1
 44
0
 45
0
  0
INSERT
  5
1D0
100
AcDbEntity
  8
0
  6
ByLayer
 62
    1
370
   -1
100
AcDbBlockReference
  2
path30
 10
0
 20
0
 30
0
 41
1
 42
1
 43
0
 50
0
 70
    1
 71
    1
 44
0
 45
0
  0
INSERT
  5
1D1
100
AcDbEntity
  8
0
  6
ByLayer
 62
    1
370
   -1
100
AcDbBlockReference
  2
path31
 10
0
 20
0
 30
0
 41
1
 42
1
 43
0
 50
0
 70
    1
 71
    1
 44
0
 45
0
  0
INSERT
  5
1D2
100
AcDbEntity
  8
0
  6
ByLayer
 62
    1
370
   -1
100
AcDbBlockReference
  2
path32
 10
0
 20
0
 30
0
 41
1
 42
1
 43
0
 50
0
 70
    1
 71
    1
 44
0
 45
0
  0
INSERT
  5
1D3
100
AcDbEntity
  8
0
  6
ByLayer
 62
    1
370
   -1
100
AcDbBlockReference
  2
path33
 10
0
 20
0
 30
0
 41
1
 42
1
 43
0
 50
0
 70
    1
 71
    1
 44
0
 45
0
  0
INSERT
  5
1D4
100
AcDbEntity
  8
0
  6
ByLayer
 62
    1
370
   -1
100
AcDbBlockReference
  2
path34
 10
0
 20
0
 30
0
 41
1
 42
1
 43
0
 50
0
 70
    1
 71
    1
 44
0
 45
0
  0
INSERT
  5
1D5
100
AcDbEntity
  8
0
  6
ByLayer
 62
    1
370
   -1
100
AcDbBlockReference
  2
path35
 10
0
 20
0
 30
0
 41
1
 42
1
 43
0
 50
0
 70
    1
 71
    1
 44
0
 45
0
  0
INSERT
  5
1D6
100
AcDbEntity
  8
0
  6
ByLayer
 62
    1
370
   -1
100
AcDbBlockReference
  2
path36
 10
0
 20
0
 30
0
 41
1
 42
1
 43
0
 50
0
 70
    1
 71
    1
 44
0
 45
0
  0
INSERT
  5
1D7
100
AcDbEntity
  8
0
  6
ByLayer
 62
    3
370
   -1
100
AcDbBlockReference
  2
path37
 10
0
 20
0
 30
0
 41
1
 42
1
 43
0
 50
0
 70
    1
 71
    1
 44
0
 45
0
  0
INSERT
  5
1D8
100
AcDbEntity
  8
0
  6
ByLayer
 62
    3
370
   -1
100
AcDbBlockReference
  2
path38
 10
0
 20
0
 30
0
 41
1
 42
1
 43
0
 50
0
 70
    1
 71
    1
 44
0
 45
0
  0
INSERT
  5
1D9
100
AcDbEntity
  8
0
  6
ByLayer
 62
    1
370
   -1
100
AcDbBlockReference
  2
path39
 10
0
 20
0
 30
0
 41
1
 42
1
 43
0
 50
0
 70
    1
 71
    1
 44
0
 45
0
  0
INSERT
  5
1DA
100
AcDbEntity
  8
0
  6
ByLayer
 62
    1
370
   -1
100
AcDbBlockReference
  2
path40
 10
0
 20
0
 30
0
 41
1
 42
1
 43
0
 50
0
 70
    1
 71
    1
 44
0
 45
0
  0
INSERT
  5
1DB
100
AcDbEntity
  8
0
  6
ByLayer
 62
    1
370
   -1
100
AcDbBlockReference
  2
path41
 10
0
 20
0
 30
0
 41
1
 42
1
 43
0
 50
0
 70
    1
 71
    1
 44
0
 45
0
  0
INSERT
  5
1DC
100
AcDbEntity
  8
0
  6
ByLayer
 62
    1
370
   -1
100
AcDbBlockReference
  2
path43
 10
0
 20
0
 30
0
 41
1
 42
1
 43
0
 50
0
 70
    1
 71
    1
 44
0
 45
0
  0
INSERT
  5
1DD
100
AcDbEntity
  8
0
  6
ByLayer
 62
    1
370
   -1
100
AcDbBlockReference
  2
path44
 10
0
 20
0
 30
0
 41
1
 42
1
 43
0
 50
0
 70
    1
 71
    1
 44
0
 45
0
  0
INSERT
  5
1DE
100
AcDbEntity
  8
0
  6
ByLayer
 62
    1
370
   -1
100
AcDbBlockReference
  2
path45
 10
0
 20
0
 30
0
 41
1
 42
1
 43
0
 50
0
 70
    1
 71
    1
 44
0
 45
0
  0
INSERT
  5
1DF
100
AcDbEntity
  8
0
  6
ByLayer
 62
    1
370
   -1
100
AcDbBlockReference
  2
path47
 10
0
 20
0
 30
0
 41
1
 42
1
 43
0
 50
0
 70
    1
 71
    1
 44
0
 45
0
  0
INSERT
  5
1E0
100
AcDbEntity
  8
0
  6
ByLayer
 62
    1
370
   -1
100
AcDbBlockReference
  2
path48
 10
0
 20
0
 30
0
 41
1
 42
1
 43
0
 50
0
 70
    1
 71
    1
 44
0
 45
0
  0
INSERT
  5
1E1
100
AcDbEntity
  8
0
  6
ByLayer
 62
    1
370
   -1
100
AcDbBlockReference
  2
path49
 10
0
 20
0
 30
0
 41
1
 42
1
 43
0
 50
0
 70
    1
 71
    1
 44
0
 45
0
  0
INSERT
  5
1E2
100
AcDbEntity
  8
0
  6
ByLayer
 62
    1
370
   -1
100
AcDbBlockReference
  2
path50
 10
0
 20
0
 30
0
 41
1
 42
1
 43
0
 50
0
 70
    1
 71
    1
 44
0
 45
0
  0
INSERT
  5
1E3
100
AcDbEntity
  8
0
  6
ByLayer
 62
    1
370
   -1
100
AcDbBlockReference
  2
path51
 10
0
 20
0
 30
0
 41
1
 42
1
 43
0
 50
0
 70
    1
 71
    1
 44
0
 45
0
  0
INSERT
  5
1E4
100
AcDbEntity
  8
0
  6
ByLayer
 62
    1
370
   -1
100
AcDbBlockReference
  2
path52
 10
0
 20
0
 30
0
 41
1
 42
1
 43
0
 50
0
 70
    1
 71
    1
 44
0
 45
0
  0
INSERT
  5
1E5
100
AcDbEntity
  8
0
  6
ByLayer
 62
    1
370
   -1
100
AcDbBlockReference
  2
path53
 10
0
 20
0
 30
0
 41
1
 42
1
 43
0
 50
0
 70
    1
 71
    1
 44
0
 45
0
  0
INSERT
  5
1E6
100
AcDbEntity
  8
0
  6
ByLayer
 62
    1
370
   -1
100
AcDbBlockReference
  2
path54
 10
0
 20
0
 30
0
 41
1
 42
1
 43
0
 50
0
 70
    1
 71
    1
 44
0
 45
0
  0
INSERT
  5
1E7
100
AcDbEntity
  8
0
  6
ByLayer
 62
    1
370
   -1
100
AcDbBlockReference
  2
path57
 10
0
 20
0
 30
0
 41
1
 42
1
 43
0
 50
0
 70
    1
 71
    1
 44
0
 45
0
  0
INSERT
  5
1E8
100
AcDbEntity
  8
0
  6
ByLayer
 62
    1
370
   -1
100
AcDbBlockReference
  2
path60
 10
0
 20
0
 30
0
 41
1
 42
1
 43
0
 50
0
 70
    1
 71
    1
 44
0
 45
0
  0
INSERT
  5
1E9
100
AcDbEntity
  8
0
  6
ByLayer
 62
    1
370
   -1
100
AcDbBlockReference
  2
path61
 10
0
 20
0
 30
0
 41
1
 42
1
 43
0
 50
0
 70
    1
 71
    1
 44
0
 45
0
  0
INSERT
  5
1EA
100
AcDbEntity
  8
0
  6
ByLayer
 62
    1
370
   -1
100
AcDbBlockReference
  2
path62
 10
0
 20
0
 30
0
 41
1
 42
1
 43
0
 50
0
 70
    1
 71
    1
 44
0
 45
0
  0
INSERT
  5
1EB
100
AcDbEntity
  8
0
  6
ByLayer
 62
    1
370
   -1
100
AcDbBlockReference
  2
path63
 10
0
 20
0
 30
0
 41
1
 42
1
 43
0
 50
0
 70
    1
 71
    1
 44
0
 45
0
  0
INSERT
  5
1EC
100
AcDbEntity
  8
0
  6
ByLayer
 62
    1
370
   -1
100
AcDbBlockReference
  2
path64
 10
0
 20
0
 30
0
 41
1
 42
1
 43
0
 50
0
 70
    1
 71
    1
 44
0
 45
0
  0
INSERT
  5
1ED
100
AcDbEntity
  8
0
  6
ByLayer
 62
    1
370
   -1
100
AcDbBlockReference
  2
path65
 10
0
 20
0
 30
0
 41
1
 42
1
 43
0
 50
0
 70
    1
 71
    1
 44
0
 45
0
  0
INSERT
  5
1EE
100
AcDbEntity
  8
0
  6
ByLayer
 62
    1
370
   -1
100
AcDbBlockReference
  2
path66
 10
0
 20
0
 30
0
 41
1
 42
1
 43
0
 50
0
 70
    1
 71
    1
 44
0
 45
0
  0
LINE
  5
1EF
100
AcDbEntity
  8
0
  6
ByLayer
 62
    1
370
   -1
100
AcDbLine
 10
3.864629261543448
 20
-5.047617813871916
 11
3.864629261543448
 21
-5.047617813871916
  0
INSERT
  5
1F0
100
AcDbEntity
  8
0
  6
ByLayer
 62
    1
370
   -1
100
AcDbBlockReference
  2
path67
 10
0
 20
0
 30
0
 41
1
 42
1
 43
0
 50
0
 70
    1
 71
    1
 44
0
 45
0
  0
INSERT
  5
1F1
100
AcDbEntity
  8
0
  6
ByLayer
 62
    1
370
   -1
100
AcDbBlockReference
  2
path70
 10
0
 20
0
 30
0
 41
1
 42
1
 43
0
 50
0
 70
    1
 71
    1
 44
0
 45
0
  0
LINE
  5
1F2
100
AcDbEntity
  8
0
  6
ByLayer
 62
    1
370
   -1
100
AcDbLine
 10
2.426189287118944
 20
-5.50761781387191
 11
2.426189287118944
 21
-5.50761781387191
  0
INSERT
  5
1F3
100
AcDbEntity
  8
0
  6
ByLayer
 62
    1
370
   -1
100
AcDbBlockReference
  2
path71
 10
0
 20
0
 30
0
 41
1
 42
1
 43
0
 50
0
 70
    1
 71
    1
 44
0
 45
0
  0
ENDSEC
  0
SECTION
  2
OBJECTS
  0
DICTIONARY
  5
C
330
0
100
AcDbDictionary
281
    1
  3
ACAD_GROUP
350
D
  3
ACAD_IMAGE_DICT
350
1F4
  0
DICTIONARY
  5
D
330
C
100
AcDbDictionary
281
    1
  0
IMAGEDEF_REACTOR
  5
1B1
330
1B2
100
AcDbRasterImageDefReactor
 90
    2
330
1B2
  0
DICTIONARY
  5
1F4
330
C
100
AcDbDictionary
281
    1
  3

350
1B0
  0
IMAGEDEF
  5
1B0
102
{ACAD_REACTORS
330
1B1
102
}
100
AcDbRasterImageDef
 90
    0
  1

 10
4000
 20
4000
 11
1
 21
1
280
    1
281
    0
  0
ENDSEC
  0
EOF
